<?xml version="1.0" encoding="utf-8"?>
<!-- Generator: Adobe Illustrator 26.0.1, SVG Export Plug-In . SVG Version: 6.00 Build 0)  -->
<svg version="1.1" id="Layer_1" xmlns="http://www.w3.org/2000/svg" xmlns:xlink="http://www.w3.org/1999/xlink" x="0px" y="0px"
	 viewBox="0 0 50 50" style="enable-background:new 0 0 50 50;" xml:space="preserve">
<style type="text/css">
	.st0{clip-path:url(#SVGID_00000001630934669232973710000000273508858634473357_);fill:#FFFFFF;}
	.st1{clip-path:url(#SVGID_00000182486894495201235450000008798935249941772426_);fill:#FFFFFF;}
</style>
<g>
	<defs>
		<rect id="SVGID_1_" x="-4.6" y="-4.3" width="40.5" height="57.2"/>
	</defs>
	<clipPath id="SVGID_00000165209302979909212450000003537809267021235104_">
		<use xlink:href="#SVGID_1_"  style="overflow:visible;"/>
	</clipPath>
	<path style="clip-path:url(#SVGID_00000165209302979909212450000003537809267021235104_);fill:#FFFFFF;" d="M1.8,25.9l21.5,22.8
		c0.5,0.5,1.4,0.5,1.9,0.1c0.5-0.5,0.5-1.4,0.1-1.9L5.9,26.3h77.4c0.7,0,1.3-0.6,1.3-1.3c0-0.7-0.6-1.3-1.3-1.3H5.9L25.2,3.1
		c0.5-0.5,0.5-1.4-0.1-1.9c-0.5-0.5-1.3-0.5-1.9,0.1L1.8,24.1C1.3,24.7,1.4,25.5,1.8,25.9L1.8,25.9z"/>
</g>
<g>
	<defs>
		<rect id="SVGID_00000016764714633851313430000003730961378272759959_" x="6.6" y="-6.4" width="63.2" height="63.2"/>
	</defs>
	<clipPath id="SVGID_00000041264070682181921070000014955038953319009938_">
		<use xlink:href="#SVGID_00000016764714633851313430000003730961378272759959_"  style="overflow:visible;"/>
	</clipPath>
	<path style="clip-path:url(#SVGID_00000041264070682181921070000014955038953319009938_);fill:#FFFFFF;" d="M-34.6,25.9l21.5,22.8
		c0.5,0.5,1.4,0.5,1.9,0.1c0.5-0.5,0.5-1.4,0.1-1.9l-19.3-20.5h77.4c0.7,0,1.3-0.6,1.3-1.3c0-0.7-0.6-1.3-1.3-1.3h-77.4l19.3-20.5
		c0.5-0.5,0.5-1.4-0.1-1.9c-0.5-0.5-1.3-0.5-1.9,0.1l-21.5,22.8C-35.2,24.7-35,25.5-34.6,25.9L-34.6,25.9z"/>
</g>
</svg>
