<?xml version="1.0" encoding="utf-8"?>
<!-- Generator: Adobe Illustrator 26.0.1, SVG Export Plug-In . SVG Version: 6.00 Build 0)  -->
<svg version="1.1" id="Layer_1" xmlns="http://www.w3.org/2000/svg" xmlns:xlink="http://www.w3.org/1999/xlink" x="0px" y="0px"
	 viewBox="0 0 1080 1080" style="enable-background:new 0 0 1080 1080;" xml:space="preserve">
<style type="text/css">
	.st0{fill:none;stroke:#FFFFFF;stroke-width:4;stroke-miterlimit:10;}
	.st1{fill:#FFFFFF;stroke:#FFFFFF;stroke-width:0.5;stroke-miterlimit:10;}
</style>
<g>
	<g>
		<polygon class="st0" points="607.6,627.5 472.4,627.5 472.4,452.5 567.8,452.5 607.6,492.3 		"/>
		<polyline class="st0" points="607.6,492.3 567.8,492.3 567.8,452.5 		"/>
	</g>
	<g>
		<g>
			<path class="st1" d="M498.6,532h12.6c2,0,3.7,0.3,5,0.9s2.3,1.3,3,2.2s1.2,1.8,1.4,2.9s0.4,2,0.4,2.9s-0.1,1.8-0.4,2.9
				c-0.2,1-0.7,2-1.4,2.9s-1.7,1.6-3,2.2s-2.9,0.9-5,0.9h-7.6v11h-5L498.6,532L498.6,532z M503.6,545.5h7.3c0.6,0,1.1-0.1,1.7-0.2
				s1.1-0.4,1.6-0.8c0.5-0.4,0.9-0.8,1.2-1.4s0.5-1.3,0.5-2.3c0-0.9-0.1-1.7-0.4-2.3s-0.6-1.1-1.1-1.5c-0.5-0.4-1-0.6-1.6-0.7
				s-1.2-0.2-1.9-0.2h-7.4V545.5z"/>
			<path class="st1" d="M530.1,532h11.8c2.2,0,4.1,0.4,5.7,1.1s2.9,1.8,3.9,3.1s1.8,2.8,2.3,4.5s0.7,3.6,0.7,5.6s-0.2,3.8-0.7,5.6
				s-1.2,3.2-2.3,4.5s-2.3,2.3-3.9,3.1s-3.5,1.1-5.7,1.1h-11.8V532z M535.1,556.5h4.9c2,0,3.5-0.3,4.8-0.8c1.2-0.5,2.2-1.2,2.9-2.2
				c0.7-0.9,1.2-2,1.4-3.2s0.4-2.6,0.4-4s-0.1-2.8-0.4-4s-0.7-2.3-1.4-3.2s-1.7-1.6-2.9-2.2s-2.8-0.8-4.8-0.8h-4.9V556.5z"/>
			<path class="st1" d="M563.8,532h19.7v4.3h-14.7v7.5h12.9v4.1h-12.9v12.7h-5V532z"/>
		</g>
	</g>
</g>
</svg>
