<svg xmlns="http://www.w3.org/2000/svg" width="1440" height="804.8" viewBox="0 0 1440 804.8">
  <g id="Layer_2" data-name="Layer 2">
    <g id="Background">
      <g id="oXRSKH.tif">
        <g>
          <path d="M460.8,804.8c.1-.6,0-1.4.9-1.3s.9.7,1.1,1.3Z" fill="#8c8c8c"/>
          <path d="M1440,202.1a1.5,1.5,0,0,1-.3-.7c-.1,0,.2-.2.3-.3Z" fill="#8c8c8c"/>
          <path d="M1414.9,804.8c.4-.6.7-.6,1,0Z" fill="#8c8c8c"/>
          <path d="M996.4,351.8c-.2,1.9-1.7,2.3-3.1,2.6a2,2,0,0,1-2.7-1.5,2.7,2.7,0,0,1,2.3-3.2A3.4,3.4,0,0,1,996.4,351.8Z" fill="#8c8c8c"/>
          <path d="M180.8,201.2c-1.5.7-3,1.4-4.7.4a2.2,2.2,0,0,1-1-2.1,1.9,1.9,0,0,1,1.4-1.3c2.3-.6,3.5.1,4.5,2.9Z" fill="#8c8c8c"/>
          <path d="M569.5,448.5c-1.5-.5-2.1-1.5-1.9-2.7s1.8-1.8,3.1-1.8,2.4.7,2,2.1S570.7,448,569.5,448.5Z" fill="#8c8c8c"/>
          <path d="M186.6,661.2a2.4,2.4,0,0,1-2.6-2.4c-.1-.9,0-2,1.1-1.9s3.2,0,3.6,1.9S187.9,660.9,186.6,661.2Z" fill="#8c8c8c"/>
          <path d="M194.3,109.7a2.1,2.1,0,0,1-2.1-2.4c.2-1.2,1.3-1.4,2.3-1.4s2.5.7,2.3,2.4S195.7,109.8,194.3,109.7Z" fill="#8c8c8c"/>
          <path d="M368.1,374.8c-.4,1.4-1.2,2.4-2.6,2.4a1.8,1.8,0,0,1-1.8-1.9c-.1-1.3.5-2.3,1.9-2.3S367.9,373.4,368.1,374.8Z" fill="#8c8c8c"/>
          <path d="M36.2,165.7c.1,1.4-.3,2.1-1.3,2.1a2.6,2.6,0,0,1-2.8-2.2c-.2-1,.8-1.9,1.8-2.1S35.6,165.1,36.2,165.7Z" fill="#8c8c8c"/>
          <path d="M219.9,210.8c0,1.3-.5,2.1-1.6,2.2s-2.2-.5-2.2-2a1.7,1.7,0,0,1,1.9-1.7A1.6,1.6,0,0,1,219.9,210.8Z" fill="#8c8c8c"/>
          <path d="M1336.6,561.2a5.8,5.8,0,0,1-1.4-.5,2.2,2.2,0,0,1-1.1-3.2,1.5,1.5,0,0,1,2-.9c1.5.5,1.7,1.7,1.2,3.1l-.6,1.4Z" fill="#8c8c8c"/>
          <path d="M649.6,64.4a1.7,1.7,0,0,1,1.7,1.7,2.2,2.2,0,0,1-2,2.4,1.3,1.3,0,0,1-1.7-1.2C647.5,65.8,648.6,65,649.6,64.4Z" fill="#8c8c8c"/>
          <path d="M1158.4,333c0,1-1.9,3.2-2.7,3a1.7,1.7,0,0,1-1.4-1.7c.1-2.1,1.9-1.9,3.2-2.2S1158.4,332.4,1158.4,333Z" fill="#8c8c8c"/>
          <path d="M522.4,491.6c-.2,1-.6,2-1.8,2.1s-2-1.1-2-2.3a1.8,1.8,0,0,1,2-1.8C521.7,489.6,522.3,490.5,522.4,491.6Z" fill="#8c8c8c"/>
          <path d="M75.9,517.6a2,2,0,0,1-2.4,1.3c-1.1,0-1.9-.5-1.7-1.8s.8-1.9,1.9-1.7A2.3,2.3,0,0,1,75.9,517.6Z" fill="#8c8c8c"/>
          <path d="M1365.5,756.5c-.3,1.3-.5,2.5-1.6,2.6s-1.7-1.3-1.8-2.5a1.6,1.6,0,0,1,1.5-1.6C1364.8,754.9,1365.1,755.9,1365.5,756.5Z" fill="#8c8c8c"/>
          <path d="M595.1,357.5c-.1,1.6-.9,2-2.1,1.9a1.4,1.4,0,0,1-1.6-1.4c.1-1.1.6-2,1.8-2S594.8,356.9,595.1,357.5Z" fill="#8c8c8c"/>
          <path d="M62.9,462.8c-.5.9,0,2.8-2.1,2.6s-1.8-.6-1.7-1.4,1.5-2.1,2.7-2.5S62.9,461.9,62.9,462.8Z" fill="#8c8c8c"/>
          <path d="M582.6,632c1.3.4,3.1.3,3,2.4s-.8.8-1.5.8a2.4,2.4,0,0,1-2.7-2.1C581.2,632.3,581.8,631.9,582.6,632Z" fill="#8c8c8c"/>
          <path d="M409,501.6a2.6,2.6,0,0,1,2.3,2.1,1.5,1.5,0,0,1-1.3,1.8c-1.4.2-2.1-.7-2.2-2A1.6,1.6,0,0,1,409,501.6Z" fill="#8c8c8c"/>
          <path d="M672.2,400.8a2,2,0,0,1-2.2,1.7,1.4,1.4,0,0,1-1.3-1.8,1.9,1.9,0,0,1,2.1-1.7A1.8,1.8,0,0,1,672.2,400.8Z" fill="#8c8c8c"/>
          <path d="M738.3,206.2a1.7,1.7,0,0,1-1.5,1.7,1.6,1.6,0,0,1-2-1.6c-.1-.9.2-1.8,1.3-1.7A2.1,2.1,0,0,1,738.3,206.2Z" fill="#8c8c8c"/>
          <path d="M535.6,361.1a2.1,2.1,0,0,1-1.3-2.7c.2-.8.8-1.6,1.7-1.3s1,1.5,1,2.4S536.7,361.1,535.6,361.1Z" fill="#8c8c8c"/>
          <path d="M637.3,382a1.5,1.5,0,0,1-1.7-1.5c-.1-1.2.6-1.8,1.8-1.8s1.7.4,1.8,1.3S638.3,381.7,637.3,382Z" fill="#8c8c8c"/>
          <path d="M332,395.7c-.2,1-.7,1.6-1.6,1.6a1.8,1.8,0,0,1-1.8-2c0-1,.6-1.6,1.6-1.4A1.7,1.7,0,0,1,332,395.7Z" fill="#8c8c8c"/>
          <path d="M85.4,270.2c-.2.9-.6,1.6-1.7,1.5s-1.7-.5-1.7-1.5a1.9,1.9,0,0,1,2.1-1.7C85,268.5,85.5,269.2,85.4,270.2Z" fill="#8c8c8c"/>
          <path d="M814,272.9c-.2.9-.1,2.2-1.6,1.9a1.4,1.4,0,0,1-1-1.9c.2-.9.4-2.1,1.7-1.9S813.9,272.2,814,272.9Z" fill="#8c8c8c"/>
          <path d="M218.1,551.4c.9.2,1.6.7,1.6,1.6a1.7,1.7,0,0,1-2,1.7,1.5,1.5,0,0,1-1.3-1.8A1.7,1.7,0,0,1,218.1,551.4Z" fill="#8c8c8c"/>
          <path d="M538.9,525.1c1.2,0,1.9.5,1.9,1.4s-1.1,1.5-2.1,1.4-1.5-.6-1.3-1.6A1.4,1.4,0,0,1,538.9,525.1Z" fill="#8c8c8c"/>
          <path d="M936.2,123.6a1.7,1.7,0,0,1-1.5-1.7c0-1.1.8-1.7,1.9-1.8s1.4.2,1.3,1A2.3,2.3,0,0,1,936.2,123.6Z" fill="#8c8c8c"/>
          <path d="M717.4,353a1.5,1.5,0,0,1-1.6,1.4c-1.1,0-2-.3-1.8-1.6s.9-1.2,1.8-1.2S717.3,352.1,717.4,353Z" fill="#8c8c8c"/>
          <path d="M386.7,594.3c1.5-.1,2.2.1,2.3.8a2,2,0,0,1-1.9,2.4c-.7.1-1.2-.6-1.3-1.3A1.6,1.6,0,0,1,386.7,594.3Z" fill="#8c8c8c"/>
          <path d="M225.9,564.8c-.3,1.2-.8,2.1-2.2,1.9a1.1,1.1,0,0,1-1-1.4,2.8,2.8,0,0,1,2.1-1.8C225.5,563.4,225.8,564.1,225.9,564.8Z" fill="#8c8c8c"/>
          <path d="M720.7,624.2c1,.2,1.9.6,2.9.7s2.4-.4,1.7,1.4-1.6.9-2.5.5-2.1-1.1-2.2-2.5Z" fill="#8c8c8c"/>
          <path d="M116.4,461.3a1.4,1.4,0,0,1-1.5,1.4c-.9.1-1.8-.1-1.7-1.1a1.8,1.8,0,0,1,2-1.6A1.4,1.4,0,0,1,116.4,461.3Z" fill="#8c8c8c"/>
          <path d="M255.7,3.2c1.1.5,1.4,1.2,1,2.1s-.7,2.1-1.9,1.6-.7-1.4-.5-2.2S254.9,3.2,255.7,3.2Z" fill="#8c8c8c"/>
          <path d="M503.3,255.8a1.1,1.1,0,0,1-.6,1.3c-1,.2-2,.2-2.4-.9a1,1,0,0,1,.7-1.5C502.1,254.5,502.7,255.3,503.3,255.8Z" fill="#8c8c8c"/>
          <path d="M451.4,600.6a1.9,1.9,0,0,1-2.3,1.4,1,1,0,0,1-.8-1.4,1.9,1.9,0,0,1,2.4-1.1A1,1,0,0,1,451.4,600.6Z" fill="#8c8c8c"/>
          <path d="M647.4,152c-1.5-1.7-1.4-3.2.2-3.8a1.3,1.3,0,0,1,.9.2.8.8,0,0,1,.4,1.2c-.4.8-1,1.6-1.5,2.4Z" fill="#8c8c8c"/>
          <path d="M243.7,674.1a1.5,1.5,0,0,1,1.2,1.8,1.2,1.2,0,0,1-1.7,1.2,1.2,1.2,0,0,1-.9-1.4A1.5,1.5,0,0,1,243.7,674.1Z" fill="#8c8c8c"/>
          <path d="M266.7,494.8c-.1.9-.7,1-1.4.9a1.8,1.8,0,0,1-1.7-1.5,1,1,0,0,1,1.2-1.1C265.8,493.2,266.7,493.6,266.7,494.8Z" fill="#8c8c8c"/>
          <path d="M99.6,457.6c-.1.9-.2,1.6-1,1.6s-.7-.6-1-.9a8.3,8.3,0,0,1-.4-1.5,1,1,0,0,1,.5-1.2c.8-.4,1.3.2,1.6.8A7,7,0,0,1,99.6,457.6Z" fill="#8c8c8c"/>
          <path d="M1381.4,756.3c1.5.4.9,1.9,1.4,2.8s-.9.5-1.5.4a1.5,1.5,0,0,1-1.2-2.1A1.2,1.2,0,0,1,1381.4,756.3Z" fill="#8c8c8c"/>
          <path d="M221.8,198.6a1.4,1.4,0,0,1-1.1,1.3c-1,0-1.5-.5-1.4-1.5a1.3,1.3,0,0,1,2.5.2Z" fill="#8c8c8c"/>
          <path d="M321.7,89.4a1.1,1.1,0,0,1-1.2-1.2,1.5,1.5,0,0,1,1.3-1.7c.8-.1,1.2.5,1.2,1.2S322.5,89.1,321.7,89.4Z" fill="#8c8c8c"/>
          <path d="M1210,5.9c0,.8-.3,1.4-1.1,1.4a1.2,1.2,0,0,1-1.4-1.1c0-.7.3-1.3,1.1-1.3A1.1,1.1,0,0,1,1210,5.9Z" fill="#8c8c8c"/>
          <path d="M978.2,42.4a1.1,1.1,0,0,1-1.3,1c-.9,0-1.4-.6-1.1-1.6a1.1,1.1,0,0,1,1.5-.8C978,41.1,978.2,41.7,978.2,42.4Z" fill="#8c8c8c"/>
          <path d="M782.6,692.8a1.2,1.2,0,0,1-1,1.4,1.2,1.2,0,0,1-1.5-1.3,1.2,1.2,0,0,1,1.2-1.2A1.2,1.2,0,0,1,782.6,692.8Z" fill="#8c8c8c"/>
          <path d="M191.5,160.8c-.6-.1-1.2-.3-1.3-1.1s.4-1.5,1.3-1.4a1.1,1.1,0,0,1,1.2,1.2A1.2,1.2,0,0,1,191.5,160.8Z" fill="#8c8c8c"/>
          <path d="M78.1,8.2a1.6,1.6,0,0,1-1.2-1.8,1.1,1.1,0,0,1,1.3-1.1c.9.1,1.2.9,1.2,1.8S78.9,8.2,78.1,8.2Z" fill="#8c8c8c"/>
          <path d="M414.2,629.7c-.3,1-1,1.1-1.8.8s-1.3-.6-1.2-1.3,1.2-.9,2-.8A1,1,0,0,1,414.2,629.7Z" fill="#8c8c8c"/>
          <path d="M485.2,495.9c-.6,0-1.5.1-1.4-.8s1-1.1,1.8-1.1,1.9,0,1.6,1.1S486,495.9,485.2,495.9Z" fill="#8c8c8c"/>
          <path d="M447.4,558.3c-.2.7-.6,1.3-1.3,1.2s-1.2-1-1.2-1.9a1,1,0,0,1,1.3-1A1.6,1.6,0,0,1,447.4,558.3Z" fill="#8c8c8c"/>
          <path d="M333.5,689.8a1.5,1.5,0,0,1,1.4,1.1c.2,1.1-.5,1.4-1.3,1.5s-1.4,0-1.4-.8A1.5,1.5,0,0,1,333.5,689.8Z" fill="#8c8c8c"/>
          <path d="M698,309.9c-.2-1.1.6-1.3,1.4-1.4s2-.4,2.1.4-1.2,1.4-2,1.8S698.4,310.5,698,309.9Z" fill="#8c8c8c"/>
          <path d="M798.3,287.3c.1-.7.4-1.3,1.1-1.3a1.6,1.6,0,0,1,1.9,1.1c.3.8-.4,1.1-1.1,1.2S798.6,288.3,798.3,287.3Z" fill="#8c8c8c"/>
          <path d="M146.4,768.4c-.7,0-1.3-.2-1.4-1a1.3,1.3,0,0,1,1.4-1.5,1.2,1.2,0,0,1,1.2,1.3A1.3,1.3,0,0,1,146.4,768.4Z" fill="#8c8c8c"/>
          <path d="M339.9,583.9c-.8-.1-1.3-.5-1.2-1.2s.5-1.5,1.5-1.3a1.4,1.4,0,0,1,1,1.4C341.1,583.6,340.5,583.8,339.9,583.9Z" fill="#8c8c8c"/>
          <path d="M653.6,441.2c-.8.9-1.8.6-2.7.4s-1.1-.5-.8-1,1.6-.9,2.6-.5A1,1,0,0,1,653.6,441.2Z" fill="#8c8c8c"/>
          <path d="M184.6,269.1c-.5,0-1.1-.2-1.2-.6s.4-1.6,1.3-1.7.9.3,1,.9A1.2,1.2,0,0,1,184.6,269.1Z" fill="#8c8c8c"/>
          <path d="M1195.6,269.9a1.7,1.7,0,0,1-1.8,1.3c-.7,0-1.3-.4-1-1.2a1.8,1.8,0,0,1,1.9-1.1A.9.9,0,0,1,1195.6,269.9Z" fill="#8c8c8c"/>
          <path d="M1032.5,247.9a.8.8,0,0,1,1,.7c.2.8.2,1.7-.7,2s-.8-.3-1-.7A1.6,1.6,0,0,1,1032.5,247.9Z" fill="#8c8c8c"/>
          <path d="M795.8,248.4c0,.5-.1,1.1-.7,1a2.1,2.1,0,0,1-1.8-2c0-.2.3-.7.5-.7S795.5,247.4,795.8,248.4Z" fill="#8c8c8c"/>
          <path d="M257.9,238.6c-.8,0-1.3-.4-1.3-1.1s.5-1.1,1.2-1.2,1.5-.1,1.5.7S258.7,238.3,257.9,238.6Z" fill="#8c8c8c"/>
          <path d="M1349,224.9c-.8-.2-1.1-.6-.8-1.3a1.4,1.4,0,0,1,1.5-1,1.1,1.1,0,0,1,.7,1.5A1.1,1.1,0,0,1,1349,224.9Z" fill="#8c8c8c"/>
          <path d="M632.8,313a1.3,1.3,0,0,1,1.5-1.1,1,1,0,0,1,.8,1.5,1.1,1.1,0,0,1-1.6.7A1,1,0,0,1,632.8,313Z" fill="#8c8c8c"/>
          <path d="M460.5,206.4c.8,0,1.2.7,1.2,1.6s.2,1.5-.8,1.3-1.2-1.2-1.4-2S459.7,206.4,460.5,206.4Z" fill="#8c8c8c"/>
          <path d="M793.4,689.1a1.5,1.5,0,0,1-1.2.9.9.9,0,0,1-1.1-1.1,1.2,1.2,0,0,1,1.6-1.2C793.2,687.8,793.5,688.2,793.4,689.1Z" fill="#8c8c8c"/>
          <path d="M828.9,204.1c.6.7,1.8,1.1,1.3,2.4s-.5,1.1-1,.9-1.2-1.5-1.1-2.5S828.1,203.9,828.9,204.1Z" fill="#8c8c8c"/>
          <path d="M255.9,668.9c0,.6-.2,1.2-1.1,1.2s-1.3-.2-1.2-1a1.5,1.5,0,0,1,1.3-1.3C255.5,667.8,255.8,668.2,255.9,668.9Z" fill="#8c8c8c"/>
          <path d="M116.4,392.5a.9.9,0,0,1-1.2.6c-.9-.3-1.4-.9-.9-1.8a1,1,0,0,1,1.3-.4A1.3,1.3,0,0,1,116.4,392.5Z" fill="#8c8c8c"/>
          <path d="M416.4,406.4a1.1,1.1,0,0,1-1.4,1c-.5,0-1-.4-.9-.9s.7-1.6,1.7-1.3A1,1,0,0,1,416.4,406.4Z" fill="#8c8c8c"/>
          <path d="M769.4,189.9a.8.8,0,0,1-.9.9c-.8.1-1.4-.2-1.4-1s.2-1.4,1-1.3A1.6,1.6,0,0,1,769.4,189.9Z" fill="#8c8c8c"/>
          <path d="M603.9,176.3a2.5,2.5,0,0,1-1.9,2c-.5,0-.7-.6-.6-1.1a2.2,2.2,0,0,1,1.5-1.7C603.5,175.3,603.8,175.7,603.9,176.3Z" fill="#8c8c8c"/>
          <path d="M391.1,168c-.2.8-.7.9-1.4.7a1.2,1.2,0,0,1-.9-1.4.9.9,0,0,1,1.4-.7A1.2,1.2,0,0,1,391.1,168Z" fill="#8c8c8c"/>
          <path d="M574.8,437a1.2,1.2,0,0,1,1.2,1.2,1.1,1.1,0,0,1-1.1,1.2,1.5,1.5,0,0,1-1.3-1.3C573.5,437.3,574.1,437,574.8,437Z" fill="#8c8c8c"/>
          <path d="M594,647.8a1.2,1.2,0,0,1-1,1.3c-.7,0-1.4-.2-1.3-1a1.3,1.3,0,0,1,1.1-1.3C593.5,646.7,594,647,594,647.8Z" fill="#8c8c8c"/>
          <path d="M925.4,460.7c1.2.3,2.6.5,2.4,2.3,0,.2-.4.5-.7.5-2,.1-1.7-1.4-1.9-2.6Z" fill="#8c8c8c"/>
          <path d="M1380.2,605.1c-.3.8-.4,1.7-1.5,1.6s-.9-.8-.7-1.5.5-1.3,1.2-1.3S1380.2,604.4,1380.2,605.1Z" fill="#8c8c8c"/>
          <path d="M239.7,141.1c1,.2,1.9.4,2,1.7a1.3,1.3,0,0,1-.7.5c-.9-.2-2.1-.1-2.3-1.3S239.1,141.2,239.7,141.1Z" fill="#8c8c8c"/>
          <path d="M19.8,131.1a1,1,0,0,1,1.1.8,1.4,1.4,0,0,1-1.4,1.6c-.6,0-.9-.5-.9-1.1A1.4,1.4,0,0,1,19.8,131.1Z" fill="#8c8c8c"/>
          <path d="M143.8,522.7c-.7-.1-1.3-.4-1.4-1.1a1.3,1.3,0,0,1,1.6-1.3,1.2,1.2,0,0,1,1.1,1.3C145.1,522.3,144.5,522.6,143.8,522.7Z" fill="#8c8c8c"/>
          <path d="M63.3,566.8c-.2.8-.7,1.1-1.4.8s-1.1-.8-.9-1.5.7-.9,1.4-.7A1.2,1.2,0,0,1,63.3,566.8Z" fill="#8c8c8c"/>
          <path d="M821.7,590.9a1,1,0,0,1-1.2-.6c-.3-1,.4-1.5,1.3-1.7s.9.4.9.9S822.5,590.8,821.7,590.9Z" fill="#8c8c8c"/>
          <path d="M243.7,775.9c-.2.7-.6,1.3-1.3,1.3a1,1,0,0,1-1.1-1.2c.1-.8.7-1.1,1.5-1.1A1,1,0,0,1,243.7,775.9Z" fill="#8c8c8c"/>
          <path d="M766.6,52c.4.1.9.3.8.9s-.6,1.5-1.6,1.3-.9-.7-.7-1.4S765.8,51.9,766.6,52Z" fill="#8c8c8c"/>
          <path d="M1150.2,618.9c-.5-.1-.9-.5-.7-1a1.3,1.3,0,0,1,1.4-1.2.8.8,0,0,1,.8,1A1.7,1.7,0,0,1,1150.2,618.9Z" fill="#8c8c8c"/>
          <path d="M780,16.4a1.3,1.3,0,0,1-1.4,1c-.6.1-1.4-.1-1.1-1s.9-.8,1.5-.7S779.9,15.8,780,16.4Z" fill="#8c8c8c"/>
          <path d="M428.2,656.2a1.1,1.1,0,0,1-.9,1,1.8,1.8,0,0,1-1.7-.7c-.3-.5.1-.9.6-1S427.8,655.3,428.2,656.2Z" fill="#8c8c8c"/>
          <path d="M1036.8,649.5c-.2,1-.9,1.2-1.5,1.4s-1.3,0-1.4-.8.1-1.1.6-1.1Z" fill="#8c8c8c"/>
          <path d="M1166.7,637.8c-1,.2-1.4-.2-1.4-1a1.1,1.1,0,0,1,.8-1.1,1.1,1.1,0,0,1,1.4,1.1C1167.5,637.2,1167,637.6,1166.7,637.8Z" fill="#8c8c8c"/>
          <path d="M966.1,151.8a1.1,1.1,0,0,1-.9,1c-.8.1-1.4-.2-1.3-1.1a1.6,1.6,0,0,1,.8-1C965.5,150.5,965.9,151.1,966.1,151.8Z" fill="#8c8c8c"/>
          <path d="M803.9,797.3a.8.8,0,0,1-.5-1.1,1.4,1.4,0,0,1,1.5-1,.8.8,0,0,1,.6,1.1A1.4,1.4,0,0,1,803.9,797.3Z" fill="#8c8c8c"/>
          <path d="M979,622.5a1.1,1.1,0,0,1,1.3,1c.1.5-.1,1-.7,1s-1.5-.3-1.6-1.2S978.4,622.5,979,622.5Z" fill="#8c8c8c"/>
          <path d="M413.5,613.8c.9,0,1,.6,1.1,1.2s-.2,1.2-.4,1.3-1.2-.3-1.3-.9S412.8,614.1,413.5,613.8Z" fill="#8c8c8c"/>
          <path d="M397.6,614.2c-.1.8-.2,1.5-1.1,1.5a.9.9,0,0,1-.8-1c.1-.8.3-1.7,1.4-1.6S397.5,613.9,397.6,614.2Z" fill="#8c8c8c"/>
          <path d="M287.9,319.3a1.1,1.1,0,0,1-1.4.9.8.8,0,0,1-.9-.9,1.2,1.2,0,0,1,1.2-1.2C287.4,318.1,287.8,318.6,287.9,319.3Z" fill="#8c8c8c"/>
          <path d="M320.4,371.2c-.7-.1-.9-.7-.8-1.4a.7.7,0,0,1,.9-.8,1.1,1.1,0,0,1,1.2,1.1C321.7,370.8,321.2,371.2,320.4,371.2Z" fill="#8c8c8c"/>
          <path d="M21,313.3a.9.9,0,0,1-1.1.7,1.4,1.4,0,0,1-1.1-1.5.8.8,0,0,1,1.1-.6A1.4,1.4,0,0,1,21,313.3Z" fill="#8c8c8c"/>
          <path d="M238.9,376c0,.5-.2,1-.7,1s-1.3-.7-1.4-1.5.4-.8.9-.7A1.3,1.3,0,0,1,238.9,376Z" fill="#8c8c8c"/>
          <path d="M453.4,177.2a1.2,1.2,0,0,1,1,.9c0,.8-.4,1.3-1.2,1.3a1,1,0,0,1-1-.9C452.1,177.6,452.6,177.3,453.4,177.2Z" fill="#8c8c8c"/>
          <path d="M375,57.3c.6.1,1,.4,1,.9s-.3,1.7-1.2,1.8-.8-.6-.9-.9A1.4,1.4,0,0,1,375,57.3Z" fill="#8c8c8c"/>
          <path d="M493,594.7c.1-.5.4-1,.9-.9s1,1,.9,1.8-.3,1-.9.7S493.1,595.4,493,594.7Z" fill="#8c8c8c"/>
          <path d="M478.7,389.1c-.1.7-.4,1.2-1.1,1.3s-1.2-.3-1-1.1.5-1.2,1.3-1.2A.9.9,0,0,1,478.7,389.1Z" fill="#8c8c8c"/>
          <path d="M1338.5,571c-.6,0-1.1-.1-1-.7a1.8,1.8,0,0,1,1.6-1.6.8.8,0,0,1,.9.8C1340,570.5,1339.3,570.9,1338.5,571Z" fill="#8c8c8c"/>
          <path d="M989.5,34.5a3,3,0,0,1-2.5,1c-.6-.1-.9-.5-.5-1a2.5,2.5,0,0,1,2.6-.7C989.5,33.9,989.6,34.1,989.5,34.5Z" fill="#8c8c8c"/>
          <path d="M971,88.1a1.2,1.2,0,0,1-1.7.3.9.9,0,0,1-.3-1.3c.4-.6,1-.9,1.6-.4A1.2,1.2,0,0,1,971,88.1Z" fill="#8c8c8c"/>
          <path d="M3.4,292.3a1.4,1.4,0,0,1-1.9.8A.8.8,0,0,1,.9,292a1.8,1.8,0,0,1,1.7-.6C3.1,291.5,3.6,291.6,3.4,292.3Z" fill="#8c8c8c"/>
          <path d="M706,220.5a2.1,2.1,0,0,1-1.3,1.9c-.5.2-.9-.1-.9-.7a1.6,1.6,0,0,1,1.1-1.9C705.4,219.6,705.8,220,706,220.5Z" fill="#8c8c8c"/>
          <path d="M718,84.4c.2-.6.6-1.1,1.4-.9a1.1,1.1,0,0,1,.8,1.4,1.6,1.6,0,0,1-1.1.7C718.5,85.7,718,85.2,718,84.4Z" fill="#8c8c8c"/>
          <path d="M778.7,394.2a1,1,0,0,1-1.3,1,1,1,0,0,1-.9-1,1.1,1.1,0,0,1,1.1-1.2C778.4,393,778.7,393.5,778.7,394.2Z" fill="#8c8c8c"/>
          <path d="M922.2,479.3a.8.8,0,0,1,.9.9,1,1,0,0,1-1.1,1.3,1,1,0,0,1-1-1C920.9,479.8,921.4,479.4,922.2,479.3Z" fill="#8c8c8c"/>
          <path d="M1415.3,747.2c-.8,0-1.2-.4-1.2-1.1a1.6,1.6,0,0,1,.7-1.1,1.1,1.1,0,0,1,1.4.9C1416.4,746.6,1415.9,747,1415.3,747.2Z" fill="#8c8c8c"/>
          <path d="M1235,467c-.2.8-.6,1.2-1.3,1.2a1.2,1.2,0,0,1-1-1.1c0-.8.6-1.1,1.3-1A1,1,0,0,1,1235,467Z" fill="#8c8c8c"/>
          <path d="M1384.4,752.8a1.2,1.2,0,0,1-1.7.5c-.6-.3-.7-.9-.3-1.6a1,1,0,0,1,1.2-.4A1.2,1.2,0,0,1,1384.4,752.8Z" fill="#8c8c8c"/>
          <path d="M254,756.6c-.3-.1-1-.3-1-.5s.8-1.3,1.6-1.3a.9.9,0,0,1,1,.8C255.5,756.5,254.8,756.5,254,756.6Z" fill="#8c8c8c"/>
          <path d="M882.8,427.2c-.5,1-1.2,1.6-2.3,1.3s-.5-.5-.5-.6a2.6,2.6,0,0,1,2.4-1.5C882.5,426.4,882.6,426.9,882.8,427.2Z" fill="#8c8c8c"/>
          <path d="M755.3,116.8a.7.7,0,0,1,1.1-.4c.6.3,1.1.7,1,1.5s-.5.4-.9.3S755.3,117.7,755.3,116.8Z" fill="#8c8c8c"/>
          <path d="M371.4,546.5a1.9,1.9,0,0,1-.8,1.7c-.5.3-.9-.1-.9-.6a1.4,1.4,0,0,1,.7-1.6C370.9,545.7,371.2,546,371.4,546.5Z" fill="#8c8c8c"/>
          <path d="M625,279.1a.9.9,0,0,1-1.1-.6c-.2-.6.3-.9.8-.9a.9.9,0,0,1,1.1.6C625.9,278.8,625.5,279,625,279.1Z" fill="#8c8c8c"/>
          <path d="M939.1,421.4c-.7-.2-1.2-.6-1.1-1.4a.8.8,0,0,1,1.1-.6,1.7,1.7,0,0,1,.9,1.1C940.1,421,939.7,421.3,939.1,421.4Z" fill="#8c8c8c"/>
          <path d="M1255,660.5a1.1,1.1,0,0,1-1.2,1.2.8.8,0,0,1-.8-1,1.8,1.8,0,0,1,1-.9C1254.5,659.6,1254.9,659.9,1255,660.5Z" fill="#8c8c8c"/>
          <path d="M318.8,424.9a1.1,1.1,0,0,1-1.2.6c-.5-.1-.9-.4-.7-1a.9.9,0,0,1,1.1-.5A.7.7,0,0,1,318.8,424.9Z" fill="#8c8c8c"/>
          <path d="M172.4,279.5c.5.1.9.3.9.9a.8.8,0,0,1-.9.8.9.9,0,0,1-1-.9C171.4,279.8,171.9,279.6,172.4,279.5Z" fill="#8c8c8c"/>
          <path d="M830.7,116.9c0,.2-.3.6-.9.4a.9.9,0,0,1-.6-1.1c.1-.5.4-1,1-.8S830.9,116.1,830.7,116.9Z" fill="#8c8c8c"/>
          <path d="M1121.4,429.3a1.2,1.2,0,0,1-1.3,1,.8.8,0,0,1-.8-1,1.1,1.1,0,0,1,1-.9C1120.9,428.3,1121.3,428.6,1121.4,429.3Z" fill="#8c8c8c"/>
          <path d="M537.2,436.7a1.2,1.2,0,0,1-1.5.7c-.5-.1-.9-.4-.8-.9s.9-.7,1.5-.7S537.3,436,537.2,436.7Z" fill="#8c8c8c"/>
          <path d="M303.9,677.6c.5.1.9.4.8.9a.8.8,0,0,1-1,.7c-.6,0-1-.3-.9-.9A1,1,0,0,1,303.9,677.6Z" fill="#8c8c8c"/>
          <path d="M396.3,125.1c.5.2.9.4.7,1a.9.9,0,0,1-1.1.6c-.5-.1-1-.4-.8-1S395.8,125.1,396.3,125.1Z" fill="#8c8c8c"/>
          <path d="M991,800.9a1.1,1.1,0,0,1-1.1.7c-.5-.1-.9-.4-.8-.9a.9.9,0,0,1,1-.8C990.7,800,991,800.2,991,800.9Z" fill="#8c8c8c"/>
          <path d="M1053.2,644.4a1.1,1.1,0,0,1-1.1.7.7.7,0,0,1-.8-.9.9.9,0,0,1,1-.7A.8.8,0,0,1,1053.2,644.4Z" fill="#8c8c8c"/>
          <path d="M2.8,407.8a1.1,1.1,0,0,1-1.1.7.7.7,0,0,1-.8-.9.9.9,0,0,1,1-.7A.8.8,0,0,1,2.8,407.8Z" fill="#8c8c8c"/>
          <path d="M531.8,635.3c-.3.4-.7.7-1.2.3a1,1,0,0,1-.3-1.2c.3-.5.7-.7,1.1-.4A1,1,0,0,1,531.8,635.3Z" fill="#8c8c8c"/>
          <path d="M1215,28.8c-.2.3-.4.9-.8,1s-.9-.6-.9-1.2.3-1.1.6-1.1S1214.8,28.1,1215,28.8Z" fill="#8c8c8c"/>
          <path d="M599,155.5c0-.6-.2-.1-.7,0s-.8-.4-.9-.9.2-1,.8-1S599,153.9,599,155.5Z" fill="#8c8c8c"/>
          <path d="M1023.1,105.9c0,.5-.3.8-.9.8a.9.9,0,0,1-1-.8c-.1-.5.3-.8.9-.8A.9.9,0,0,1,1023.1,105.9Z" fill="#8c8c8c"/>
          <path d="M1118.6,467.1c-.1.7-.5,1.2-1.3,1.1a.9.9,0,0,1-.7-1.1,1.9,1.9,0,0,1,1.1-.9C1118.2,466.1,1118.6,466.5,1118.6,467.1Z" fill="#8c8c8c"/>
          <path d="M678,355.8a1.1,1.1,0,0,1-1.2.5c-.5-.1-.9-.4-.7-1a.9.9,0,0,1,1.1-.5C677.7,354.9,678.1,355.1,678,355.8Z" fill="#8c8c8c"/>
          <path d="M198.7,323c0-.4-.3,0-.8-.1a.9.9,0,0,1-.7-1.1.7.7,0,0,1,.9-.8C198.6,321.1,198.8,321.5,198.7,323Z" fill="#8c8c8c"/>
          <path d="M852.1,247.5c.2.1.7.4.5.9a1,1,0,0,1-1.2.6c-.5-.1-.9-.4-.7-1S851.3,247.4,852.1,247.5Z" fill="#8c8c8c"/>
          <path d="M434.2,400.5a.7.7,0,0,1-.8.9c-.5.1-1,0-1.1-.6s.3-.8.8-.9A.9.9,0,0,1,434.2,400.5Z" fill="#8c8c8c"/>
          <path d="M202.2,611.1a1.5,1.5,0,0,1-1.4,1c-.5.1-1-.1-1-.6a1.2,1.2,0,0,1,1.3-1.1C201.6,610.3,202.1,610.4,202.2,611.1Z" fill="#8c8c8c"/>
          <path d="M1091.6,171.4a.9.9,0,0,1-.6,1.1.7.7,0,0,1-.9-.8.9.9,0,0,1,.6-1.1C1091.3,170.4,1091.5,170.9,1091.6,171.4Z" fill="#8c8c8c"/>
          <path d="M406.4,483.6c-.1.5-.4.9-.9.7a.9.9,0,0,1-.6-1.1c.1-.5.3-1,.9-.8A1,1,0,0,1,406.4,483.6Z" fill="#8c8c8c"/>
          <path d="M895,483.3a1,1,0,0,1-.7,1.1.8.8,0,0,1-.9-.9,1,1,0,0,1,.7-1.1C894.7,482.3,895,482.7,895,483.3Z" fill="#8c8c8c"/>
          <path d="M399.2,603.4a1.1,1.1,0,0,1-1.2,1.2.8.8,0,0,1-.8-1,2.4,2.4,0,0,1,1-1C398.7,602.4,399.2,602.7,399.2,603.4Z" fill="#8c8c8c"/>
          <path d="M564.9,499.4c.4.1,1.2.3,1.2,1s-.6.5-1,.5-1.4-.1-1.4-.9S564.2,499.2,564.9,499.4Z" fill="#8c8c8c"/>
          <path d="M1098.2,386.6a.8.8,0,0,1-.9.9c-.7-.1-1.1-.4-1.1-1.2s.4-.9.9-.9S1098.1,386,1098.2,386.6Z" fill="#8c8c8c"/>
          <path d="M14.5,516.4a1.7,1.7,0,0,1-1.5,1.1c-.5.2-1.1.1-1.1-.5s.7-.9,1.3-.9S14.1,516.3,14.5,516.4Z" fill="#8c8c8c"/>
          <path d="M250.3,734.5a1,1,0,0,1-1.1.7,1.1,1.1,0,0,1-.9-1.5c.2-.6.8-.5,1.3-.3S250.5,733.9,250.3,734.5Z" fill="#8c8c8c"/>
          <path d="M1155.7,63.5a1,1,0,0,1-1.1-.7c0-.5.4-.8.9-.9a.9.9,0,0,1,1,.8C1156.6,63.2,1156.2,63.5,1155.7,63.5Z" fill="#8c8c8c"/>
          <path d="M1378.1,584a1.4,1.4,0,0,1-1.2-1.3c0-.5.2-1,.9-.8a1.8,1.8,0,0,1,1.2,1.3C1379.1,583.9,1378.6,584,1378.1,584Z" fill="#8c8c8c"/>
          <path d="M48,577.2a1.1,1.1,0,0,1-1.1.8c-.6-.1-1-.4-.9-1a1,1,0,0,1,1.1-.7A1.1,1.1,0,0,1,48,577.2Z" fill="#8c8c8c"/>
          <path d="M487.7,573.8c-.1.5-.4.9-1,.8a1,1,0,0,1-.6-1.2c.1-.5.4-.9,1-.7S487.7,573.3,487.7,573.8Z" fill="#8c8c8c"/>
          <path d="M268.7,85.8a.9.9,0,0,1-1,.8c-.5,0-.9-.2-.9-.8a.8.8,0,0,1,.9-.8A.9.9,0,0,1,268.7,85.8Z" fill="#8c8c8c"/>
          <path d="M567.7,15.2c-.6.1-1-.1-1-.6s.8-.9,1.5-.9,1,0,.9.5S568.3,15,567.7,15.2Z" fill="#8c8c8c"/>
          <path d="M921.7,544.4a1,1,0,0,1-1.1.4c-.5,0-1-.3-.8-.9a1,1,0,0,1,1.2-.6C921.5,543.4,921.9,543.6,921.7,544.4Z" fill="#8c8c8c"/>
          <path d="M1275.1,538.3a1.1,1.1,0,0,1-1.2,1.1.8.8,0,0,1-.8-.9,1.1,1.1,0,0,1,1.2-1.1A.7.7,0,0,1,1275.1,538.3Z" fill="#8c8c8c"/>
          <path d="M226.8,89.4c0-.5-.3-.1-.9-.2s-.7-.5-.7-1,.4-.9.9-.8S226.9,87.9,226.8,89.4Z" fill="#8c8c8c"/>
          <path d="M39.3,394.3a.9.9,0,0,1-.9.8.9.9,0,0,1-.8-1,.8.8,0,0,1,.8-.9C39,393.2,39.2,393.6,39.3,394.3Z" fill="#8c8c8c"/>
          <path d="M58.2,213c-.5,0-1-.1-.9-.7a1,1,0,0,1,1-.8,1.3,1.3,0,0,1,.7.5C59.1,212.6,58.7,212.9,58.2,213Z" fill="#8c8c8c"/>
          <path d="M699.7,211.7c.4.1.6.4.5,1a1,1,0,0,1-1.1.7,1,1,0,0,1-.4-.8C698.8,212.1,699,211.7,699.7,211.7Z" fill="#8c8c8c"/>
          <path d="M918.2,211c.5.2.8.6.7,1a.7.7,0,0,1-1,.6,1.1,1.1,0,0,1-.4-1.3C917.6,211.1,918,211.1,918.2,211Z" fill="#8c8c8c"/>
          <path d="M1367.2,529.7a.9.9,0,0,1-1,.7.8.8,0,0,1-.9-.9.9.9,0,0,1,1-.9C1366.8,528.6,1367.2,528.9,1367.2,529.7Z" fill="#8c8c8c"/>
          <path d="M238.1,90a1,1,0,0,1-.6-1.1c.1-.6.5-.8,1-.5a1.1,1.1,0,0,1,.4,1.3C238.8,90.1,238.5,90.2,238.1,90Z" fill="#8c8c8c"/>
          <path d="M556.8,531.2c-.1.5-.3,1-.9,1s-.7-.4-.6-.9.4-.9,1-.8S556.6,531,556.8,531.2Z" fill="#8c8c8c"/>
          <path d="M214.9,295.9c-.5-.3-.7-.7-.4-1.2a.7.7,0,0,1,1.1-.4.8.8,0,0,1,.2.8A.7.7,0,0,1,214.9,295.9Z" fill="#8c8c8c"/>
          <path d="M159.7,88.3a.8.8,0,0,1-.4-1.1c.3-.5.6-.8,1.1-.5s.3.6.2.9S160.3,88.4,159.7,88.3Z" fill="#8c8c8c"/>
          <path d="M178.3,733.4a.8.8,0,0,1-.9-.8.7.7,0,0,1,1-.6.8.8,0,0,1,.7,1C179,733.2,178.6,733.3,178.3,733.4Z" fill="#8c8c8c"/>
          <path d="M256.8,764.7c0,.6-.2,1-.7,1.1s-.8-.3-.8-.8a.7.7,0,0,1,.9-.8C256.4,764.2,256.6,764.5,256.8,764.7Z" fill="#8c8c8c"/>
          <path d="M985.3,214.2a1.1,1.1,0,0,1,1.1-.7c.5.1.8.5.5,1a.8.8,0,0,1-1.2.4C985.5,214.8,985.5,214.5,985.3,214.2Z" fill="#8c8c8c"/>
          <path d="M755.2,389.8c.3,0,.8.1.8.7a1,1,0,0,1-1,.8c-.3,0-.7-.3-.7-.5S754.5,389.9,755.2,389.8Z" fill="#8c8c8c"/>
          <path d="M554.6,571.3a.9.9,0,0,1-1.1.6.6.6,0,0,1-.5-.9.9.9,0,0,1,1.3-.4C554.5,570.7,554.5,571.1,554.6,571.3Z" fill="#8c8c8c"/>
          <path d="M664.3,716a.9.9,0,0,1-.7,1c-.6,0-.8-.4-.7-.9s.4-.9.9-.8S664.2,715.8,664.3,716Z" fill="#8c8c8c"/>
          <path d="M774.7,411.4l.8.3a1.2,1.2,0,0,1-1.1,1.4c-.2.1-.7-.2-.8-.4S774.1,411.6,774.7,411.4Z" fill="#8c8c8c"/>
          <path d="M536.7,217.4a.9.9,0,0,1-.4-1.2.7.7,0,0,1,1.1-.4,1,1,0,0,1,.2.8A.8.8,0,0,1,536.7,217.4Z" fill="#8c8c8c"/>
          <path d="M81.4,95.6a1.2,1.2,0,0,1,.8,1.1.6.6,0,0,1-1,.6.9.9,0,0,1-.4-1.2C80.8,95.9,81.2,95.8,81.4,95.6Z" fill="#8c8c8c"/>
          <path d="M1083.2,774.1c0-.5.2-.9.7-.9a.8.8,0,0,1,.8.9c0,.3-.3.8-.4.8S1083.4,774.6,1083.2,774.1Z" fill="#8c8c8c"/>
          <path d="M210.2,500.7a.8.8,0,0,1,.6,1.1.8.8,0,0,1-1.1.6,1,1,0,0,1-.4-.7A1.2,1.2,0,0,1,210.2,500.7Z" fill="#8c8c8c"/>
          <path d="M1238,379.7c-.1.5-.3,1-.8,1.1s-.7-.4-.7-.9.4-.9.9-.8S1237.8,379.5,1238,379.7Z" fill="#8c8c8c"/>
          <path d="M557.6,496.1a.8.8,0,0,1-1.1.4.9.9,0,0,1-.5-1.1c.1-.2.5-.3.8-.3A.8.8,0,0,1,557.6,496.1Z" fill="#8c8c8c"/>
          <path d="M729.8,744.1a.8.8,0,0,1,.7,1c0,.6-.4.9-.9.6a.9.9,0,0,1-.5-1.2C729.2,744.3,729.6,744.2,729.8,744.1Z" fill="#8c8c8c"/>
          <path d="M364.7,706.8a.7.7,0,0,1-1,.5c-.5-.1-.9-.5-.7-1a.7.7,0,0,1,.8-.4Q364.6,705.9,364.7,706.8Z" fill="#8c8c8c"/>
          <path d="M434.6,608.7c-.1.5-.3,1-.8,1s-.8-.4-.7-.9a.9.9,0,0,1,1-.8C434.3,608,434.4,608.5,434.6,608.7Z" fill="#8c8c8c"/>
          <path d="M458,772a.8.8,0,0,1-1.1.4c-.5-.1-.8-.5-.5-1a.8.8,0,0,1,.8-.3A.8.8,0,0,1,458,772Z" fill="#8c8c8c"/>
          <path d="M1296.4,467.4c-.1.5-.3,1-.9.9s-.7-.4-.5-.9.5-.9,1-.7S1296.3,467.2,1296.4,467.4Z" fill="#8c8c8c"/>
          <path d="M827.6,405.2c.1.5-.1,1-.7.9a.7.7,0,0,1-.7-.9c0-.3.2-.7.4-.7S827.4,404.7,827.6,405.2Z" fill="#8c8c8c"/>
          <path d="M867.1,618.7c.5.2.8.5.6,1a.9.9,0,0,1-1,.8,1.2,1.2,0,0,1-.4-.8A1,1,0,0,1,867.1,618.7Z" fill="#8c8c8c"/>
          <path d="M249.3,162.4a.9.9,0,0,1,1,.7c.1.7-.4.8-.9.8s-.9-.4-.8-1S249,162.6,249.3,162.4Z" fill="#8c8c8c"/>
          <path d="M300.5,332.5a2.2,2.2,0,0,1-1.1.5.6.6,0,0,1-.5-.9.8.8,0,0,1,1.2-.4C300.3,331.8,300.4,332.2,300.5,332.5Z" fill="#8c8c8c"/>
          <path d="M459.3,406a1,1,0,0,1-1.2.5c-.6-.2-.7-.6-.3-1a.9.9,0,0,1,1.2-.3C459.2,405.3,459.2,405.7,459.3,406Z" fill="#8c8c8c"/>
          <path d="M1326.1,252.7c-.5-.1-.9-.4-.9-.9a.9.9,0,0,1,.9-1,.9.9,0,0,1,1,1C1327.1,252.3,1326.7,252.6,1326.1,252.7Z" fill="#8c8c8c"/>
          <path d="M34.8,696.1a1.2,1.2,0,0,1,1.3,1,.6.6,0,0,1-.9.7,2.3,2.3,0,0,1-1.1-.8C33.9,696.5,34.3,696.2,34.8,696.1Z" fill="#8c8c8c"/>
          <path d="M479.4,630.5a.9.9,0,0,1-.3-1.2.7.7,0,0,1,1.1-.4c.2.1.3.5.3.8A.9.9,0,0,1,479.4,630.5Z" fill="#8c8c8c"/>
          <path d="M817.5,4.8c-.2.1-.5.4-.7.3a.9.9,0,0,1-.5-1.5,1.1,1.1,0,0,1,.8-.1A1,1,0,0,1,817.5,4.8Z" fill="#8c8c8c"/>
          <path d="M427.2,692.7a.9.9,0,0,1-1.1.6c-.5-.1-.8-.5-.5-1a1.1,1.1,0,0,1,1.3-.4C427.1,692,427.1,692.4,427.2,692.7Z" fill="#8c8c8c"/>
          <path d="M850.6,752.8a.9.9,0,0,1,1,.7.7.7,0,0,1-.9.7c-.5-.1-.9-.4-.8-1S850.3,752.9,850.6,752.8Z" fill="#8c8c8c"/>
          <path d="M1431.2,466.2a.9.9,0,0,1-1.2.4.7.7,0,0,1-.4-1.1c.1-.2.5-.3.8-.3A1,1,0,0,1,1431.2,466.2Z" fill="#8c8c8c"/>
          <path d="M223.6,151.2c-.4-.2-.5-.6-.3-1.1a.7.7,0,0,1,1-.5.9.9,0,0,1-.7,1.6Z" fill="#8c8c8c"/>
          <path d="M1106.4,635.4a.7.7,0,0,1-1.1.4c-.4-.2-.8-.5-.5-1a.8.8,0,0,1,.8-.3C1106.1,634.5,1106.4,634.8,1106.4,635.4Z" fill="#8c8c8c"/>
          <path d="M363.2,347.4c-.5,0-1-.2-.9-.8a1,1,0,0,1,1.1-.7c.2.1.6.3.6.6S363.7,347.3,363.2,347.4Z" fill="#8c8c8c"/>
          <path d="M919.8,639.4a.9.9,0,0,1-1.1.5c-.4-.2-.8-.6-.6-1.1s.5-.3.8-.3A.8.8,0,0,1,919.8,639.4Z" fill="#8c8c8c"/>
          <path d="M647,758.2c.1.5-.1.9-.7.9a.7.7,0,0,1-.7-.9c0-.3.2-.8.4-.8A.9.9,0,0,1,647,758.2Z" fill="#8c8c8c"/>
          <path d="M714.2,646.5c-.2.1-.5.4-.8.3a.9.9,0,0,1-.6-1.1c.1-.5.5-.8,1-.4A.8.8,0,0,1,714.2,646.5Z" fill="#8c8c8c"/>
          <path d="M960.6,465.3c.3.6.2,1-.1,1.1s-1.1-.7-1.3-1.3a.5.5,0,0,1,.2-.8C960.3,464.2,960.4,465,960.6,465.3Z" fill="#8c8c8c"/>
          <path d="M400.4,686.3c-.2.1-.5.4-.7.3a.9.9,0,0,1-.7-1.1c.1-.5.5-.8,1-.5A1,1,0,0,1,400.4,686.3Z" fill="#8c8c8c"/>
          <path d="M1021.3,340.5c-.4.6-.9.3-1.3.1s-.9-.6-.6-1.1a.8.8,0,0,1,1.3-.2A1.2,1.2,0,0,1,1021.3,340.5Z" fill="#8c8c8c"/>
          <path d="M608.6,265.6a1.6,1.6,0,0,1,1.3,1.3c.2.5-.2,1-.7.6a5.5,5.5,0,0,1-1.2-1.4Z" fill="#8c8c8c"/>
          <path d="M995.4,6.4a1.1,1.1,0,0,1,.8,1,.7.7,0,0,1-1,.7,1,1,0,0,1-.4-1.2C994.8,6.6,995.2,6.5,995.4,6.4Z" fill="#8c8c8c"/>
          <path d="M627.1,75.3a.8.8,0,0,1-.2-1.2c.2-.4.6-.7,1-.4s.3.6.3.8S627.9,75.5,627.1,75.3Z" fill="#8c8c8c"/>
          <path d="M1208.9,676.5a1.1,1.1,0,0,1-.7,1.1c-.7.1-.8-.3-.8-.8a.9.9,0,0,1,.9-.9C1208.5,675.9,1208.7,676.3,1208.9,676.5Z" fill="#8c8c8c"/>
          <path d="M531.7,124.1a.8.8,0,0,1-.4-1.1c.2-.5.6-.8,1-.5s.4.6.3.8S532.2,124.2,531.7,124.1Z" fill="#8c8c8c"/>
          <path d="M407.5,676.2a1.2,1.2,0,0,1,.8,1.1.7.7,0,0,1-1,.6,1.6,1.6,0,0,1-.4-1.2C406.9,676.6,407.3,676.4,407.5,676.2Z" fill="#8c8c8c"/>
          <path d="M254.8,429c-.1.5-.4,1-.9.9s-.7-.5-.6-1,.6-.8,1.1-.6S254.7,428.8,254.8,429Z" fill="#8c8c8c"/>
          <path d="M513.4,123.3c-.1-.5.1-.9.7-.9a.8.8,0,0,1,.7,1c0,.2-.2.7-.4.7A.9.9,0,0,1,513.4,123.3Z" fill="#8c8c8c"/>
          <path d="M351.6,421.2a1.1,1.1,0,0,1,.7,1.1c0,.5-.4.9-.9.6a2.6,2.6,0,0,1-.5-1.2Z" fill="#8c8c8c"/>
          <path d="M707.5,664.2a.8.8,0,0,1,.7,1c0,.6-.4.9-.9.6a1,1,0,0,1-.5-1.2C706.9,664.4,707.2,664.3,707.5,664.2Z" fill="#8c8c8c"/>
          <path d="M683.5,667.8c.6.2.8.6.6,1.1a.8.8,0,0,1-1,.7,1.2,1.2,0,0,1-.4-.8A1,1,0,0,1,683.5,667.8Z" fill="#8c8c8c"/>
          <path d="M313.2,669.7c.3.3.6.5.6.7a.9.9,0,0,1-1.3.8c-.2-.1-.4-.7-.3-.8Z" fill="#8c8c8c"/>
          <path d="M382.5,336.4c.1-.8-.2-1.9.9-2.4s.7.2.7.4-.7,1.6-1.5,2.2Z" fill="#8c8c8c"/>
          <path d="M1314.1,578.9l-.3.8c-.2-.1-.6-.2-.7-.4s.2-.5.3-.7Z" fill="#8c8c8c"/>
          <path d="M647,261.4c.2.1.7.2.7.4a.7.7,0,0,1-.8.9.9.9,0,0,1-.7-.5C646,261.6,646.4,261.4,647,261.4Z" fill="#8c8c8c"/>
          <path d="M233.8,731l.7.3c.1.2-.1.5-.3.8s-.6-.2-.7-.4A2.1,2.1,0,0,1,233.8,731Z" fill="#8c8c8c"/>
          <path d="M53.9,354.8c.1-.3.2-.7.4-.7s.5.1.7.3a4.9,4.9,0,0,1-.3.7C54.5,355.2,54.2,354.9,53.9,354.8Z" fill="#8c8c8c"/>
          <path d="M650,523.8c-.1.2-.2.6-.4.7s-.5-.2-.7-.3a4.9,4.9,0,0,1,.3-.7C649.4,523.4,649.7,523.7,650,523.8Z" fill="#8c8c8c"/>
          <path d="M1424.5,664.2l-.3.7c-.3-.1-.7-.1-.8-.3s.2-.5.3-.8A2,2,0,0,1,1424.5,664.2Z" fill="#8c8c8c"/>
          <path d="M580.5,795.2a.8.8,0,0,1-1.2.3.7.7,0,0,1-.3-.7.7.7,0,0,1,1.1-.4A3,3,0,0,1,580.5,795.2Z" fill="#8c8c8c"/>
          <path d="M210.6,795l-.8.3c-.1-.3-.4-.6-.3-.8s.5-.2.8-.3Z" fill="#8c8c8c"/>
          <path d="M429.3,356.3c-.1.3-.2.7-.4.7s-.5-.2-.8-.3.2-.6.4-.7S429,356.2,429.3,356.3Z" fill="#8c8c8c"/>
          <path d="M879.9,120.3c.3.1.7.2.8.4a2.1,2.1,0,0,1-.3.7c-.3-.1-.7-.1-.8-.3A4.1,4.1,0,0,1,879.9,120.3Z" fill="#8c8c8c"/>
          <path d="M825.6,356.3c-.1.3-.2.6-.4.7s-.5-.1-.7-.3.1-.6.3-.7S825.3,356.2,825.6,356.3Z" fill="#8c8c8c"/>
          <path d="M1415.7,356c.3.1.7.1.7.3s-.2.5-.3.8-.6-.2-.7-.4S1415.6,356.2,1415.7,356Z" fill="#8c8c8c"/>
          <path d="M185.4,522.5c-.1.5-.4.9-1,.8a1,1,0,0,1,0-1.6C185,521.6,185.3,522,185.4,522.5Z" fill="#8c8c8c"/>
          <path d="M337.2,315.9c.2.1.6.1.7.3s-.1.7-.3.7a.7.7,0,0,1-.7-.3C336.8,316.5,337.1,316.1,337.2,315.9Z" fill="#8c8c8c"/>
          <path d="M441.5,115.4c.2.1.6.1.7.3a.7.7,0,0,1-.3.7c-.2.1-.5-.2-.7-.3Z" fill="#8c8c8c"/>
          <path d="M315.9,315.2c-.1.3-.1.7-.3.8a1.2,1.2,0,0,1-.8-.4,3.6,3.6,0,0,1,.3-.7Z" fill="#8c8c8c"/>
          <path d="M866.9,313.9l.7.3c.1.2-.2.5-.3.8s-.6-.2-.7-.4A2.1,2.1,0,0,1,866.9,313.9Z" fill="#8c8c8c"/>
          <path d="M771.6,313.9l.8.3c-.2.3-.2.7-.4.7s-.5-.1-.7-.3Z" fill="#8c8c8c"/>
          <path d="M90.1,369.5a1.1,1.1,0,0,1,.4,1.3c0,.3-.3.5-.4.8a3.3,3.3,0,0,1-.4-1.3C89.7,370.1,90,369.8,90.1,369.5Z" fill="#8c8c8c"/>
          <path d="M36,370.8c-.3.1-.6.4-.8.3s-.3-.5-.2-.7.4-.2.7-.3Z" fill="#8c8c8c"/>
          <path d="M533.6,26.9c-.3.1-.6.3-.8.2a2.4,2.4,0,0,1-.3-.7c.3-.1.6-.3.8-.2S533.5,26.6,533.6,26.9Z" fill="#8c8c8c"/>
          <path d="M36,88.6c-.1.3-.2.7-.4.7a.7.7,0,0,1-.7-.3,2.1,2.1,0,0,1,.3-.7Z" fill="#8c8c8c"/>
          <path d="M586.8,732.3c-.1.3-.2.7-.4.7s-.5-.1-.7-.3a4.9,4.9,0,0,1,.3-.7Z" fill="#8c8c8c"/>
          <path d="M960.2,650.8c.3.1.7.2.7.3s-.1.5-.2.8-.7-.2-.8-.4A3.6,3.6,0,0,1,960.2,650.8Z" fill="#8c8c8c"/>
          <path d="M135.3,309.2a2.4,2.4,0,0,1-.3.7c-.2.1-.5-.2-.8-.3s.2-.6.4-.7S135,309.1,135.3,309.2Z" fill="#8c8c8c"/>
          <path d="M1252.7,378a1.9,1.9,0,0,1-.8.3,1.1,1.1,0,0,1-.8-1c0-.2.5-.4.8-.4A1.2,1.2,0,0,1,1252.7,378Z" fill="#8c8c8c"/>
          <path d="M544.3,518.5l-.8-.3c.2-.3.2-.7.4-.7s.5.1.7.3Z" fill="#8c8c8c"/>
          <path d="M684.4,533.7c-.1.5-.3,1-.8.9s-.5-.4-.4-.7.3-1,.9-1S684.3,533.4,684.4,533.7Z" fill="#8c8c8c"/>
          <path d="M1088.7,307a1.1,1.1,0,0,1,1-.9c.2,0,.7.2.7.4s-.4.8-.9.8S1089,307.1,1088.7,307Z" fill="#8c8c8c"/>
          <path d="M384.9,382.1a2,2,0,0,1-.4.8.9.9,0,0,1-1.2-.3.5.5,0,0,1,.3-.8A1,1,0,0,1,384.9,382.1Z" fill="#8c8c8c"/>
          <path d="M72.3,219.6c.3.1.7.2.7.4a.7.7,0,0,1-.3.7,1,1,0,0,1-.7-.4C72,220.2,72.2,219.9,72.3,219.6Z" fill="#8c8c8c"/>
          <path d="M889,204.6c.2.1.6.1.7.3s-.2.5-.3.8-.7-.2-.8-.4A1.3,1.3,0,0,1,889,204.6Z" fill="#8c8c8c"/>
          <path d="M510.2,780.3l-.8-.4c.1-.2.2-.6.4-.7s.4.2.7.3Z" fill="#8c8c8c"/>
          <path d="M99.2,137.7l-.3.8c-.3-.1-.7-.1-.8-.3a4.1,4.1,0,0,1,.3-.8Z" fill="#8c8c8c"/>
          <path d="M433.9,58.9c-.3.4-.7.7-1.2.5a.4.4,0,0,1-.2-.8,3.1,3.1,0,0,1,1.2-.5C434.1,58.1,434.1,58.6,433.9,58.9Z" fill="#8c8c8c"/>
          <path d="M320.6,536.5a.8.8,0,0,1-1.2.3c-.2-.1-.4-.6-.3-.7s.7-.7,1.2-.4S320.5,536.2,320.6,536.5Z" fill="#8c8c8c"/>
          <path d="M460.4,687.2l-.3.8-.8-.3a4.1,4.1,0,0,1,.3-.8Z" fill="#8c8c8c"/>
          <path d="M1346.7,202.6c-.3.5-.8.5-1.3.5l-.8-.5a1.1,1.1,0,0,1,1.3-.4C1346.2,202.2,1346.5,202.5,1346.7,202.6Z" fill="#8c8c8c"/>
          <path d="M749.5,508.4c.3.1.7.2.8.4a1.3,1.3,0,0,1-.4.7,1,1,0,0,1-.7-.4C749.1,508.9,749.4,508.6,749.5,508.4Z" fill="#8c8c8c"/>
          <path d="M151.4.3c-.1.3-.2.7-.4.8l-.7-.3c-.1-.2.2-.5.3-.8Z" fill="#8c8c8c"/>
          <path d="M635.8,774.9c.1-.2.2-.6.4-.7s.5.2.7.3a4.9,4.9,0,0,1-.3.7C636.4,775.3,636.1,775,635.8,774.9Z" fill="#8c8c8c"/>
          <path d="M345,770.4c-.1.3-.2.7-.4.8s-.5-.2-.7-.3.2-.7.3-.7S344.7,770.3,345,770.4Z" fill="#8c8c8c"/>
          <path d="M109.2,229l-.3.8c-.2-.2-.6-.2-.7-.4s.2-.5.3-.8Z" fill="#8c8c8c"/>
          <path d="M988.1,726.3c-.1.3-.2.7-.3.7s-.7-.1-.7-.2a.8.8,0,0,1,.3-.8Z" fill="#8c8c8c"/>
          <path d="M828.5,36.4c-.1.3-.1.7-.3.7a.7.7,0,0,1-.7-.3c-.1-.1.1-.6.3-.7Z" fill="#8c8c8c"/>
          <path d="M34.9,145.1c.3.1.7.2.8.4a.8.8,0,0,1-.8.9.7.7,0,0,1-.7-.9C34.2,145.3,34.7,145.2,34.9,145.1Z" fill="#8c8c8c"/>
          <path d="M214.8,145.4c.2.1.6.2.7.4s-.2.5-.3.7-.6-.1-.7-.3S214.7,145.7,214.8,145.4Z" fill="#8c8c8c"/>
          <path d="M651.7,146.5c-.3-.1-.7-.1-.8-.3a4.1,4.1,0,0,1,.3-.8c.3.1.7.2.8.4A2.1,2.1,0,0,1,651.7,146.5Z" fill="#8c8c8c"/>
          <path d="M201.7,66.2l.8.4a4.9,4.9,0,0,1-.3.7c-.2.1-.5-.2-.8-.3Z" fill="#8c8c8c"/>
          <path d="M27.6,43.3l-.8-.4c.2-.2.2-.6.4-.7s.5.2.8.3A2,2,0,0,0,27.6,43.3Z" fill="#8c8c8c"/>
          <path d="M30.6,150.5l-.8-.3c.2-.2.2-.6.4-.7s.5.2.8.3A2.5,2.5,0,0,0,30.6,150.5Z" fill="#8c8c8c"/>
          <path d="M343.2,735c.3.1.7.2.7.4s-.1.5-.3.7-.6-.2-.7-.4S343.1,735.2,343.2,735Z" fill="#8c8c8c"/>
          <path d="M211.3,150.3c-.3.1-.6.4-.8.3a4.5,4.5,0,0,1-.9-1l.8-.3A1.1,1.1,0,0,1,211.3,150.3Z" fill="#8c8c8c"/>
          <path d="M1085.1,500.5l-.8-.3c.1-.3.2-.7.4-.7s.5.1.7.3Z" fill="#8c8c8c"/>
          <path d="M68.5,691c-.2.2-.3.7-.5.7a.7.7,0,0,1-.9-.8.7.7,0,0,1,.9-.7C68.2,690.3,68.3,690.7,68.5,691Z" fill="#8c8c8c"/>
          <path d="M1252.8,410.9c.2-.3.2-.6.4-.7s.5.2.7.3-.1.6-.3.7S1253.1,411,1252.8,410.9Z" fill="#8c8c8c"/>
          <path d="M99.2,549.8c-.1.3-.2.7-.3.7s-.5-.1-.8-.2.2-.7.4-.7S99,549.7,99.2,549.8Z" fill="#8c8c8c"/>
          <path d="M281.8,283.1l-.9-.4c.3-.4.5-.8.9-1s.5.2.8.3A7.6,7.6,0,0,0,281.8,283.1Z" fill="#8c8c8c"/>
          <path d="M960.7,550.6c-.3-.1-.7-.1-.8-.3a2.1,2.1,0,0,1,.3-.7c.3.1.7.1.7.3S960.8,550.4,960.7,550.6Z" fill="#8c8c8c"/>
          <path d="M48.3,70.2c.2.1.6.2.7.4a2.1,2.1,0,0,1-.3.7c-.3-.1-.7-.2-.8-.4A2.7,2.7,0,0,1,48.3,70.2Z" fill="#8c8c8c"/>
          <path d="M267.5,274.8a1,1,0,0,1-1.3.3.5.5,0,0,1-.3-.7c.3-.5.8-.7,1.2-.4A3,3,0,0,1,267.5,274.8Z" fill="#8c8c8c"/>
          <path d="M537.6,631l-.9-.4.9-1a2,2,0,0,1,.8.4Z" fill="#8c8c8c"/>
          <path d="M1380.9,79.7c.6.1,1.3.2,1.4,1a.9.9,0,0,1-.6.6c-.8-.1-.9-.8-1-1.5Z" fill="#8c8c8c"/>
          <path d="M448.2,553c-.2-.2-.7-.3-.7-.5a.8.8,0,0,1,.8-.9.7.7,0,0,1,.7,1C449,552.8,448.5,552.9,448.2,553Z" fill="#8c8c8c"/>
          <path d="M84.5,761.2c-.1.2-.3.7-.5.7a.7.7,0,0,1-.9-.8,1.2,1.2,0,0,1,.5-.7C84.3,760.2,84.4,760.7,84.5,761.2Z" fill="#8c8c8c"/>
          <path d="M468.3,486.1c.1-.2.2-.6.4-.7s.4.2.7.3-.2.7-.4.7S468.5,486.2,468.3,486.1Z" fill="#8c8c8c"/>
          <path d="M1128.5,155.8c-.1.2-.1.6-.3.7s-.5-.2-.8-.3.2-.7.4-.7S1128.3,155.6,1128.5,155.8Z" fill="#8c8c8c"/>
          <path d="M1435.7,7c.3.2.7.2.8.4a2.1,2.1,0,0,1-.3.7c-.3-.1-.7-.1-.8-.3A4.1,4.1,0,0,1,1435.7,7Z" fill="#8c8c8c"/>
          <path d="M101.4,624.7c.2.2.6.2.7.4s-.2.5-.3.7-.6-.1-.7-.3A4.1,4.1,0,0,1,101.4,624.7Z" fill="#8c8c8c"/>
          <path d="M352,725.3c-.1.3-.2.7-.4.7s-.5-.1-.7-.3.1-.6.3-.7S351.7,725.2,352,725.3Z" fill="#8c8c8c"/>
          <path d="M76.1,193.8l-.3.8c-.3-.1-.7-.1-.8-.3a4.1,4.1,0,0,1,.3-.8Z" fill="#8c8c8c"/>
          <path d="M867.9,758.1c.3.1.7.1.8.3a2,2,0,0,1-.4.8c-.2-.1-.6-.2-.7-.4A2.1,2.1,0,0,1,867.9,758.1Z" fill="#8c8c8c"/>
          <path d="M526.8,697c.2.1.6.1.7.3s-.2.5-.3.7-.6-.1-.7-.3S526.7,697.2,526.8,697Z" fill="#8c8c8c"/>
          <path d="M18.2,237.7c.2.1.6.1.7.3a2.1,2.1,0,0,1-.3.7c-.3-.1-.7-.1-.7-.3S18,237.9,18.2,237.7Z" fill="#8c8c8c"/>
          <path d="M347.7,30.3a.9.9,0,0,1-.8,1c-.2.1-.5-.2-.8-.3a8.1,8.1,0,0,1,.9-1C347.1,29.9,347.5,30.2,347.7,30.3Z" fill="#8c8c8c"/>
          <path d="M391.1,483.6c-.1.3-.1.7-.3.8l-.8-.3c.1-.3.2-.7.4-.8Z" fill="#8c8c8c"/>
          <path d="M255.6,568.3c.1-.2.1-.6.3-.7s.5.2.8.3-.2.7-.4.7S255.8,568.4,255.6,568.3Z" fill="#8c8c8c"/>
          <path d="M657,571.4c-.2.1-.5.3-.7.2s-.3-.4-.4-.7l.8-.3C656.9,570.7,656.9,571.1,657,571.4Z" fill="#8c8c8c"/>
          <path d="M970.7,482.5c-.2-.2-.6-.2-.7-.4s.2-.5.3-.8.6.2.7.4S970.8,482.2,970.7,482.5Z" fill="#8c8c8c"/>
          <path d="M932.6,92.9l.8.4a1,1,0,0,1-1.3.5,1.9,1.9,0,0,1-.8-.4C931.6,92.8,932.1,92.9,932.6,92.9Z" fill="#8c8c8c"/>
          <path d="M341.6,266.9c-.3.1-.6.3-.8.2s-.9-.2-.9-.8.5-.3.7-.3A1.1,1.1,0,0,1,341.6,266.9Z" fill="#8c8c8c"/>
          <path d="M720.1,246.2c-.2-.2-.7-.3-.7-.5s.2-.9.8-.9a1.2,1.2,0,0,1,.7.5C721.1,245.9,720.6,246.1,720.1,246.2Z" fill="#8c8c8c"/>
          <path d="M1272,100.6c-.1.3-.1.7-.3.8s-.7-.2-.7-.4.2-.5.3-.7Z" fill="#8c8c8c"/>
          <path d="M21.6,168c-.3.5-.7.7-1.2.3a.8.8,0,0,1-.3-.8,1,1,0,0,1,1.3-.3A.5.5,0,0,1,21.6,168Z" fill="#8c8c8c"/>
          <path d="M772.3,705c-.1.5-.4.9-1,.7s-.4-.5-.4-.7a1,1,0,0,1,.4-.8C771.9,704.1,772.2,704.5,772.3,705Z" fill="#8c8c8c"/>
          <path d="M775.4,16.4c-.1.3-.2.7-.4.7s-.5-.2-.7-.3.2-.6.4-.7S775.2,16.3,775.4,16.4Z" fill="#8c8c8c"/>
          <path d="M873.6,245.5l.3-.8c.3.1.7.2.8.4a2.1,2.1,0,0,1-.3.7Z" fill="#8c8c8c"/>
          <path d="M942.8,260.5c.2-.2.2-.6.4-.7s.5.2.8.3-.2.6-.4.7S943.1,260.6,942.8,260.5Z" fill="#8c8c8c"/>
          <path d="M1363.7,172.4a1,1,0,0,1,.9,1c0,.3-.2.8-.3.8s-.7-.5-.9-1A.6.6,0,0,1,1363.7,172.4Z" fill="#8c8c8c"/>
          <path d="M1324.9,479.5c-.3-.2-.7-.2-.7-.4s.1-.5.2-.7.7.1.8.3A4.1,4.1,0,0,1,1324.9,479.5Z" fill="#8c8c8c"/>
          <path d="M809.4,247.5l.3-.8c.3.1.7.2.7.4s-.1.5-.3.7Z" fill="#8c8c8c"/>
          <path d="M395.9,592.7a1.1,1.1,0,0,1-1.3.3,1.1,1.1,0,0,1-.2-.8c.2-.5.7-.7,1.1-.3S395.8,592.4,395.9,592.7Z" fill="#8c8c8c"/>
          <path d="M866.7,593.4c-.3.1-.6.4-.8.3s-.3-.6-.2-.7.5-.4.7-.3A4.9,4.9,0,0,1,866.7,593.4Z" fill="#8c8c8c"/>
          <path d="M37,453.1l-.8.2a2.1,2.1,0,0,1-.3-.7c.1-.2.5-.2.8-.3Z" fill="#8c8c8c"/>
          <path d="M759.2,465.1c.1-.3.2-.7.4-.8l.7.3c-.1.3-.1.7-.3.8S759.5,465.2,759.2,465.1Z" fill="#8c8c8c"/>
          <path d="M662.8,257.6c-.3.1-.6.4-.8.3s-.9-.4-.8-1l.7-.3A1.2,1.2,0,0,1,662.8,257.6Z" fill="#8c8c8c"/>
          <path d="M889.4,255.8l-.7-.3c.1-.2.1-.6.3-.7s.5.2.7.3Z" fill="#8c8c8c"/>
          <path d="M2.1,463.3c.2.1.6.2.7.4s-.2.5-.3.7-.7-.2-.7-.4S2,463.5,2.1,463.3Z" fill="#8c8c8c"/>
          <path d="M1397.2,593.7l-1.2.8c-.4.2-.7,0-.7-.3s.4-.9.9-.9S1396.8,593.6,1397.2,593.7Z" fill="#8c8c8c"/>
          <path d="M570.9,594.3q.6.2.3.6l-.4.2-.7-.4A2,2,0,0,1,570.9,594.3Z" fill="#8c8c8c"/>
          <path d="M655.8,595.9l-.5.6c-.2-.2-.4-.3-.5-.5a.5.5,0,0,1,.3-.4C655.4,595.4,655.6,595.5,655.8,595.9Z" fill="#8c8c8c"/>
          <path d="M563.5,180.4l-.7-.5.6-.4.3.2A.4.4,0,0,1,563.5,180.4Z" fill="#8c8c8c"/>
          <path d="M523.3,457c0,.3-.1.5-.5.4s-.3-.4-.4-.6.2-.3.2-.3A1.8,1.8,0,0,1,523.3,457Z" fill="#8c8c8c"/>
          <path d="M974.1,175.8a.4.4,0,0,1-.4.6l-.4-.3c-.2-.2-.2-.6.1-.6S973.9,175.7,974.1,175.8Z" fill="#8c8c8c"/>
          <path d="M235.7,181.3c.2-.2.4-.5.6-.5s.5.2.4.6l-.3.3C236,181.9,235.8,181.7,235.7,181.3Z" fill="#8c8c8c"/>
          <path d="M278.8,602.5c.2-.2.4-.5.6-.6s.6.3.4.6-.1.3-.3.4A.5.5,0,0,1,278.8,602.5Z" fill="#8c8c8c"/>
          <path d="M1144.8,74.4l.6.6-.7.4s-.3-.2-.3-.3Z" fill="#8c8c8c"/>
          <path d="M634.5,23.2l-.8.3c-.4,0-.5-.3-.3-.6s.3-.2.4-.1S634.2,23,634.5,23.2Z" fill="#8c8c8c"/>
          <path d="M706.6,754.3l-.6-.5a1,1,0,0,1,.5-.4c.1-.1.3.1.3.2S707,754.2,706.6,754.3Z" fill="#8c8c8c"/>
          <path d="M897.3,708.8l.6.6a.4.4,0,0,1-.6.4c-.1-.1-.3-.2-.3-.3S896.9,708.9,897.3,708.8Z" fill="#8c8c8c"/>
          <path d="M1423.2,585.8c-.4.1-.6,0-.6-.4a.8.8,0,0,1,.2-.4c.3-.2.6-.2.7.1S1423.3,585.6,1423.2,585.8Z" fill="#8c8c8c"/>
          <path d="M1408.2,583.6c-.2,0-.5.1-.7,0s-.2-.2-.2-.3.2-.6.5-.4S1408.1,583.4,1408.2,583.6Z" fill="#8c8c8c"/>
          <path d="M196.2,468.9l-.8.2c.1-.3.1-.6.2-.8s.3-.1.4-.1S196.4,468.6,196.2,468.9Z" fill="#8c8c8c"/>
          <path d="M386.9,174.5h-.8c-.1,0-.2-.2-.2-.3s.3-.6.6-.4S386.8,174.2,386.9,174.5Z" fill="#8c8c8c"/>
          <path d="M459.9,442.1c.2.2.5.4.5.6s-.2.5-.6.3-.2-.2-.3-.3S459.6,442.2,459.9,442.1Z" fill="#8c8c8c"/>
          <path d="M725.7,115.8c.6.2,1.4,0,1.3,1s-.2.3-.4.3-.9-.6-1-1.2Z" fill="#8c8c8c"/>
          <path d="M212.7,438.9c-.2.1-.4.5-.6.5s-.5-.3-.4-.6a.5.5,0,0,1,.4-.3C212.4,438.3,212.6,438.5,212.7,438.9Z" fill="#8c8c8c"/>
          <path d="M553.2,574.5c.2.2.5.3.5.5s-.2.5-.5.4-.3-.2-.4-.3S552.8,574.5,553.2,574.5Z" fill="#8c8c8c"/>
          <path d="M501.2,434.9a1.2,1.2,0,0,1-.5.5l-.3-.3c-.2-.3-.2-.6.2-.6S501,434.8,501.2,434.9Z" fill="#8c8c8c"/>
          <path d="M468.6,481.5l.6.6-.7.4-.3-.3A.5.5,0,0,1,468.6,481.5Z" fill="#8c8c8c"/>
          <path d="M1071.1,187.2c.1.4-.1.6-.5.5s-.3-.4-.4-.6l.2-.3Z" fill="#8c8c8c"/>
          <path d="M71.1,74.1a2.2,2.2,0,0,1,0-.8l.3-.2c.4.1.6.3.4.6S71.3,74,71.1,74.1Z" fill="#8c8c8c"/>
          <path d="M1093,613a1.2,1.2,0,0,1,.5.5.3.3,0,0,1-.3.3c-.3.3-.6.2-.6-.2S1092.9,613.2,1093,613Z" fill="#8c8c8c"/>
          <path d="M330.7,742.3l-.5.6-.4-.5a.8.8,0,0,1,.2-.4C330.3,741.8,330.6,741.9,330.7,742.3Z" fill="#8c8c8c"/>
          <path d="M753.4,721.6a.5.5,0,0,1-.8.1,1.4,1.4,0,0,1-.2-.4l.7-.4Z" fill="#8c8c8c"/>
          <path d="M1262.7,568.3c-.2.1-.3.3-.5.5a4.3,4.3,0,0,0-.4-.7c0-.1.2-.3.2-.3A1.8,1.8,0,0,1,1262.7,568.3Z" fill="#8c8c8c"/>
          <path d="M666.9,704.6c-.1-.3-.3-.5-.3-.8s.3-.5.6-.3a.8.8,0,0,1,.2.4Z" fill="#8c8c8c"/>
          <path d="M1264.1,738.7c-.3.3-.5.3-.8,0l-.2-.3.6-.4Z" fill="#8c8c8c"/>
          <path d="M170.8,13.3l-.6-.5.6-.5.3.3C171.3,12.9,171.2,13.2,170.8,13.3Z" fill="#8c8c8c"/>
          <path d="M899.6,428.5l-.6.5c-.1-.2-.3-.3-.4-.6s.2-.3.3-.3Z" fill="#8c8c8c"/>
          <path d="M681.8,485.1l-.5.4-.3-.2c-.2-.4-.2-.7.2-.7S681.6,484.9,681.8,485.1Z" fill="#8c8c8c"/>
          <path d="M230.2,238.8l-.9.3c-.4-.1-.5-.4-.2-.6l.5-.2Z" fill="#8c8c8c"/>
          <path d="M473.8,701.2l-.6-.6c-.1-.3.2-.5.5-.4s.3.2.4.3S474.2,701.1,473.8,701.2Z" fill="#8c8c8c"/>
          <path d="M509.2,624.7h-.7c-.1,0-.2-.2-.2-.3s.3-.6.6-.4S509.1,624.5,509.2,624.7Z" fill="#8c8c8c"/>
          <path d="M1195.9,624.3c-.2.2-.4.6-.6.6s-.5-.2-.4-.6l.3-.3C1195.6,623.8,1195.8,624,1195.9,624.3Z" fill="#8c8c8c"/>
          <path d="M1074,424.8h-.7a1.7,1.7,0,0,1,.1-.7h.4C1074.2,424.2,1074.2,424.5,1074,424.8Z" fill="#8c8c8c"/>
          <path d="M1120.6,423.5c.1.3-.1.5-.4.5l-.4-.2a.4.4,0,0,1,.1-.7C1120.1,423.1,1120.3,423.3,1120.6,423.5Z" fill="#8c8c8c"/>
          <path d="M135.6,22.3q-.2.6-.6.3c-.1-.1-.2-.3-.1-.4a2.5,2.5,0,0,1,.4-.7Z" fill="#8c8c8c"/>
          <path d="M497.7,423.6l.4-.5.4.6c.1.1-.2.3-.2.3Z" fill="#8c8c8c"/>
          <path d="M1399.1,764.7l-.7.2a2.2,2.2,0,0,1,.1-.8h.4C1399.3,764.1,1399.3,764.4,1399.1,764.7Z" fill="#8c8c8c"/>
          <path d="M278.5,151.6a1.8,1.8,0,0,1-.5.7l-.4-.6.2-.3C278.2,151.2,278.4,151.3,278.5,151.6Z" fill="#8c8c8c"/>
          <path d="M555.7,410.8c-.2.3-.4.3-.7,0a.5.5,0,0,1-.2-.4.4.4,0,0,1,.6-.3C555.6,410.2,555.6,410.5,555.7,410.8Z" fill="#8c8c8c"/>
          <path d="M715.7,634c-.3,0-.6.2-.9.1s-.4-.4,0-.6h.4C715.6,633.4,715.8,633.6,715.7,634Z" fill="#8c8c8c"/>
          <path d="M532.4,546c.3-.1.5.1.5.5a.6.6,0,0,1-.1.4c-.2.4-.5.4-.6-.1A3.1,3.1,0,0,1,532.4,546Z" fill="#8c8c8c"/>
          <path d="M228.2,501.5a3.2,3.2,0,0,1-.9.3c-.4-.1-.5-.4-.2-.6l.4-.2A1.8,1.8,0,0,1,228.2,501.5Z" fill="#8c8c8c"/>
          <path d="M882.2,502.6l-.8.2c-.5-.2-.5-.5-.1-.7a.4.4,0,0,1,.5,0C882.2,502.1,882.3,502.3,882.2,502.6Z" fill="#8c8c8c"/>
          <path d="M1019.1,287.4a2.1,2.1,0,0,1-.3-.7c0-.4.3-.6.6-.3s.2.3.1.4Z" fill="#8c8c8c"/>
          <path d="M685.9,688.1l-.5.6-.5-.5a.3.3,0,0,1,.3-.3C685.5,687.6,685.7,687.7,685.9,688.1Z" fill="#8c8c8c"/>
          <path d="M368.4,769.9c-.3.1-.5,0-.5-.4s.1-.3.2-.3h.7A1.6,1.6,0,0,1,368.4,769.9Z" fill="#8c8c8c"/>
          <path d="M554.2,392.2a1.9,1.9,0,0,1-.8.3c-.4,0-.5-.3-.2-.6a.2.2,0,0,1,.3-.1Z" fill="#8c8c8c"/>
          <path d="M1004,294.3c-.4-.1-.6-.3-.4-.6h.8c.1-.1.2.1.3.3Z" fill="#8c8c8c"/>
          <path d="M631,542a3.1,3.1,0,0,1,.2.8c-.1.5-.4.5-.7.1v-.4C630.5,542.1,630.7,541.9,631,542Z" fill="#8c8c8c"/>
          <path d="M1347.4,90a1.6,1.6,0,0,1,.6-.5c.3,0,.4.3.3.6s-.1.3-.3.4A.5.5,0,0,1,1347.4,90Z" fill="#8c8c8c"/>
          <path d="M247,640.6c-.3.1-.5,0-.5-.4s.1-.4.2-.4h.7A2.5,2.5,0,0,1,247,640.6Z" fill="#8c8c8c"/>
          <path d="M879.5,222.8l-.5.7a2.1,2.1,0,0,1-.4-.6c-.1,0,.1-.2.2-.3A.4.4,0,0,1,879.5,222.8Z" fill="#8c8c8c"/>
          <path d="M943.3,36.3l-.6-.5.6-.4.3.3Q943.9,36.2,943.3,36.3Z" fill="#8c8c8c"/>
          <path d="M558.4,382.7c.1.3,0,.5-.4.5h-.3v-.8Z" fill="#8c8c8c"/>
          <path d="M73.6,732.9c.1.3,0,.5-.4.6h-.5c-.4-.3-.4-.6.1-.7Z" fill="#8c8c8c"/>
          <path d="M270.8,643.4c-.1.2-.3.5-.5.5s-.5-.3-.4-.6l.4-.3C270.6,642.9,270.8,643,270.8,643.4Z" fill="#8c8c8c"/>
          <path d="M1048.1,217.1c.3-.1.5.1.5.5a.6.6,0,0,1-.1.4c-.2.4-.5.4-.6-.1S1048,217.4,1048.1,217.1Z" fill="#8c8c8c"/>
          <path d="M533.2,647.9a3.2,3.2,0,0,1-.9.3c-.4-.1-.5-.4-.2-.6l.4-.2Z" fill="#8c8c8c"/>
          <path d="M63.2,134l-.5.6-.4-.6c-.1,0,.1-.2.2-.3S63.1,133.6,63.2,134Z" fill="#8c8c8c"/>
          <path d="M779.5,787.4c.1.4-.1.6-.4.6a.5.5,0,0,1-.4-.2c-.3-.3-.3-.6,0-.7S779.2,787.3,779.5,787.4Z" fill="#8c8c8c"/>
          <path d="M1231.2,85.1c-.3.1-.5,0-.5-.4s.1-.4.2-.4h.7A2.5,2.5,0,0,1,1231.2,85.1Z" fill="#8c8c8c"/>
          <path d="M133.7,375.3l-.6-.5.5-.5.4.3C134.2,374.9,134.1,375.2,133.7,375.3Z" fill="#8c8c8c"/>
          <path d="M185.3,364.3c-.2.2-.4.5-.6.6a.4.4,0,0,1-.4-.6q.1-.3.3-.3C185,363.8,185.2,363.9,185.3,364.3Z" fill="#8c8c8c"/>
          <path d="M310.4,353.9c.2.1.5.3.5.5s-.2.5-.5.4-.3-.2-.4-.3S310,353.9,310.4,353.9Z" fill="#8c8c8c"/>
          <path d="M1200.5,340.7l.6-.5.3.2c.2.4.2.7-.2.7S1200.8,340.9,1200.5,340.7Z" fill="#8c8c8c"/>
          <path d="M901.8,728.8h-.3c.1-.1.1-.3.2-.4h.3C901.9,728.6,901.9,728.7,901.8,728.8Z" fill="#8c8c8c"/>
          <path d="M215.3,522.5l-.3.2-.3-.2Q215.2,522.1,215.3,522.5Z" fill="#8c8c8c"/>
          <path d="M447.5,85.4v-.3h.4v.3Z" fill="#8c8c8c"/>
          <path d="M983.7,87.2v.3h-.3a1,1,0,0,0,.1-.3Z" fill="#8c8c8c"/>
          <path d="M163.6,210.7v-.3l.4.2v.3Z" fill="#8c8c8c"/>
          <path d="M1431.7,517.6l.2-.3h.3a1,1,0,0,0-.1.3Z" fill="#8c8c8c"/>
          <path d="M909.5,88.4h-.4v-.3C909.4,88,909.5,88.1,909.5,88.4Z" fill="#8c8c8c"/>
          <path d="M840.3,215.8h-.4v-.3C840.2,215.3,840.3,215.4,840.3,215.8Z" fill="#8c8c8c"/>
          <path d="M1328.3,216.3h-.3c-.2-.3-.1-.5.2-.4S1328.3,216.2,1328.3,216.3Z" fill="#8c8c8c"/>
          <path d="M95.3,532.1l-.2.2c-.1-.1-.2-.2-.2-.3s.2-.2.3-.3Z" fill="#8c8c8c"/>
          <path d="M641.1,217.2l-.2.3a.8.8,0,0,1-.2-.4l.2-.3Z" fill="#8c8c8c"/>
          <path d="M1323.4,206.7v-.3l.4.2v.3Z" fill="#8c8c8c"/>
          <path d="M48.2,218.3h-.3c-.3-.3-.2-.5.2-.4A.5.5,0,0,0,48.2,218.3Z" fill="#8c8c8c"/>
          <path d="M541.4,516.5l-.3.2c-.1,0-.2-.2-.3-.3S541.2,516.2,541.4,516.5Z" fill="#8c8c8c"/>
          <path d="M478.1,516.4v.3h-.4c0-.1.1-.2.1-.3Z" fill="#8c8c8c"/>
          <path d="M495.6,219.2l-.2.3c-.1-.1-.2-.2-.2-.3l.3-.3Z" fill="#8c8c8c"/>
          <path d="M837.6,219.4h-.3c.1-.1.1-.3.2-.3h.2Z" fill="#8c8c8c"/>
          <path d="M700.8,532.6h-.4a1,1,0,0,0-.1-.3C700.7,532.2,700.8,532.3,700.8,532.6Z" fill="#8c8c8c"/>
          <path d="M1183.5,88.3l-.3.2-.3-.2C1183.1,88,1183.3,88.1,1183.5,88.3Z" fill="#8c8c8c"/>
          <path d="M478.1,82.4h-.4c0-.1-.1-.3,0-.3S478.1,82,478.1,82.4Z" fill="#8c8c8c"/>
          <path d="M727.4,535.1l-.3.3c0-.2-.1-.3-.1-.4s.1-.2.2-.3Z" fill="#8c8c8c"/>
          <path d="M378.5,514.7l-.3-.3h.4l.2.2Z" fill="#8c8c8c"/>
          <path d="M200.1,514.3a1,1,0,0,0,.1.3c-.3.2-.5.1-.4-.2S200,514.3,200.1,514.3Z" fill="#8c8c8c"/>
          <path d="M650.4,91.5l-.3-.2.4-.2c.1,0,.1.2.2.3Z" fill="#8c8c8c"/>
          <path d="M952.1,224.3l-.2.2c-.1-.1-.2-.2-.2-.3l.2-.3A.5.5,0,0,1,952.1,224.3Z" fill="#8c8c8c"/>
          <path d="M180.4,508.7c.1.1.2.2.2.3s-.2.2-.2.3S180.1,508.8,180.4,508.7Z" fill="#8c8c8c"/>
          <path d="M1067.7,507.7l-.2-.3h.3l.3.2Z" fill="#8c8c8c"/>
          <path d="M1360,505.3c0,.2-.1.3-.1.4l-.4-.2a1,1,0,0,0,.1-.3Z" fill="#8c8c8c"/>
          <path d="M616.7,506.1v-.3h.3C617.1,506,617.1,506.2,616.7,506.1Z" fill="#8c8c8c"/>
          <path d="M226.6,227.4h-.3l.2-.3h.3Z" fill="#8c8c8c"/>
          <path d="M542.5,505.2v-.4h.3C542.9,505.1,542.8,505.2,542.5,505.2Z" fill="#8c8c8c"/>
          <path d="M1327.3,545.2h-.3c-.2-.3-.1-.5.2-.4S1327.3,545.1,1327.3,545.2Z" fill="#8c8c8c"/>
          <path d="M331.8,200.9h.3a.4.4,0,0,1-.1.3c-.1.1-.2,0-.3-.1Z" fill="#8c8c8c"/>
          <path d="M1394.6,200.2l-.3.3-.2-.4.3-.3Z" fill="#8c8c8c"/>
          <path d="M1296.8,545.5a.4.4,0,0,0-.1.3l-.4-.2a1,1,0,0,0,.1-.3Z" fill="#8c8c8c"/>
          <path d="M1378.2,499.7h.3c0,.1,0,.3-.1.3h-.3Z" fill="#8c8c8c"/>
          <path d="M650,546.7c0,.1.1.3.1.4s-.1.1-.2.2S649.7,546.9,650,546.7Z" fill="#8c8c8c"/>
          <path d="M126.4,736.6l-.2.3c-.1-.1-.2-.2-.2-.3s.2-.2.3-.3Z" fill="#8c8c8c"/>
          <path d="M980.7,37.3h-.3a.5.5,0,0,1-.1-.3C980.6,36.8,980.8,36.9,980.7,37.3Z" fill="#8c8c8c"/>
          <path d="M566.9,489.5v-.3c.1,0,.3,0,.3.1s0,.2,0,.3Z" fill="#8c8c8c"/>
          <path d="M449.5,232.8l.2-.3h.3v.3Z" fill="#8c8c8c"/>
          <path d="M757.4,551.3H757c.1-.1.1-.3.2-.3s.2,0,.3.1Z" fill="#8c8c8c"/>
          <path d="M729.5,236.8v-.3h.3v.3Z" fill="#8c8c8c"/>
          <path d="M8.5,555.7H8.2v-.3C8.4,555.3,8.6,555.3,8.5,555.7Z" fill="#8c8c8c"/>
          <path d="M1134.2,557.5v.3h-.3c0-.1.1-.2.1-.3Z" fill="#8c8c8c"/>
          <path d="M455,485.5h-.4c0-.1-.1-.3,0-.3S455,485.1,455,485.5Z" fill="#8c8c8c"/>
          <path d="M721.8,559.4a.5.5,0,0,1,.1.3c-.3.2-.5.2-.4-.2S721.7,559.4,721.8,559.4Z" fill="#8c8c8c"/>
          <path d="M1336.7,561.1c.4.3.8.5.5,1.1s-.3,0-.3-.1a3.2,3.2,0,0,1-.3-.9Z" fill="#8c8c8c"/>
          <path d="M87.5,484.8l1.1-.6.2.3-1.1.5Z" fill="#8c8c8c"/>
          <path d="M689,12.4h.3l-.2.3h-.3Z" fill="#8c8c8c"/>
          <path d="M227.8,567.7v-.3h.4c0,.1-.1.2-.1.3Z" fill="#8c8c8c"/>
          <path d="M884.4,715.9v.3c-.1,0-.3,0-.3-.1s0-.2.1-.3Z" fill="#8c8c8c"/>
          <path d="M81.8,187.5v.3h-.3c-.1-.1,0-.2.1-.3Z" fill="#8c8c8c"/>
          <path d="M1304,570.9h.3c-.1.1-.1.3-.2.3s-.2,0-.3-.1Z" fill="#8c8c8c"/>
          <path d="M273.7,94.5a.5.5,0,0,1,.2.4l-.2.3C273.4,94.9,273.4,94.7,273.7,94.5Z" fill="#8c8c8c"/>
          <path d="M1427.7,580.2l-.3.3c0-.1-.2-.2-.1-.3s.1-.2.2-.3Z" fill="#8c8c8c"/>
          <path d="M756,79.2v.3h-.3c-.1-.1,0-.2.1-.3Z" fill="#8c8c8c"/>
          <path d="M243.3,712.9v.3c-.1,0-.3,0-.3-.1s0-.2.1-.3Z" fill="#8c8c8c"/>
          <path d="M865.5,475.4l-.4.2c-.1,0-.2-.2-.3-.3S865.3,475.1,865.5,475.4Z" fill="#8c8c8c"/>
          <path d="M1405.6,182.2h-.3c-.3-.3-.2-.5.2-.4S1405.6,182.1,1405.6,182.2Z" fill="#8c8c8c"/>
          <path d="M652.8,588.9h.4l-.2.4h-.3Z" fill="#8c8c8c"/>
          <path d="M130.4,467.9l-.2.3-.2-.4.3-.2Z" fill="#8c8c8c"/>
          <path d="M142.4,80h-.3a.4.4,0,0,1,.1-.3h.3Z" fill="#8c8c8c"/>
          <path d="M292.6,746.1l-.3.2-.3-.2Q292.3,745.6,292.6,746.1Z" fill="#8c8c8c"/>
          <path d="M1102.9,747.3l-.3-.2.3-.2.3.2Z" fill="#8c8c8c"/>
          <path d="M1366.5,751.2a.4.4,0,0,0,.1-.3h.4c0,.1-.1.2-.1.3Z" fill="#8c8c8c"/>
          <path d="M82.1,249.9a.5.5,0,0,1,.2.4l-.3.3C81.8,250.3,81.8,250.1,82.1,249.9Z" fill="#8c8c8c"/>
          <path d="M1415.3,181.3a.6.6,0,0,0-.1-.4h.3C1415.7,181.2,1415.7,181.3,1415.3,181.3Z" fill="#8c8c8c"/>
          <path d="M491.4,592.9c.1.1.2.2.2.3l-.2.3Q491,593.1,491.4,592.9Z" fill="#8c8c8c"/>
          <path d="M1348.3,757.9h-.3a.6.6,0,0,1,.1-.4h.3C1348.4,757.7,1348.3,757.8,1348.3,757.9Z" fill="#8c8c8c"/>
          <path d="M169.4,180.8c0,.1.2.2.1.3a.2.2,0,0,1-.2.2C169.1,181.1,169.1,180.9,169.4,180.8Z" fill="#8c8c8c"/>
          <path d="M1262.4,712.2l-.3-.2.3-.2.3.2Z" fill="#8c8c8c"/>
          <path d="M662.2,457.9l-.3.2c0-.1-.1-.2-.1-.3s.1-.2.2-.3Z" fill="#8c8c8c"/>
          <path d="M389.3,599.4c-.1,0-.3.1-.3,0s-.2-.4.2-.4A1,1,0,0,0,389.3,599.4Z" fill="#8c8c8c"/>
          <path d="M517.7,255.3l-.2.3a.8.8,0,0,1-.2-.4l.2-.2Z" fill="#8c8c8c"/>
          <path d="M1032.2,712.2c.1.1.2.2.2.3s-.2.2-.3.3S1031.9,712.4,1032.2,712.2Z" fill="#8c8c8c"/>
          <path d="M301.7,256h.3c0,.2,0,.3-.1.4h-.3Z" fill="#8c8c8c"/>
          <path d="M1089,454.1v.3c-.3.2-.5.2-.4-.2Z" fill="#8c8c8c"/>
          <path d="M1365.1,177.3a.8.8,0,0,0-.1-.4h.4C1365.6,177.2,1365.5,177.3,1365.1,177.3Z" fill="#8c8c8c"/>
          <path d="M921,599.3l-.2.2-.2-.3c0-.1.2-.2.2-.3Z" fill="#8c8c8c"/>
          <path d="M947.7,451.3l-.3.2-.3-.2C947.4,451,947.5,451,947.7,451.3Z" fill="#8c8c8c"/>
          <path d="M502.9,175.8l-.3-.3c.1,0,.2-.2.3-.1l.3.2Z" fill="#8c8c8c"/>
          <path d="M1065.3,8.3l.2.3-.3.3C1065,8.6,1065,8.4,1065.3,8.3Z" fill="#8c8c8c"/>
          <path d="M1418.7,606.8c0-.1.1-.2.1-.3h.4c0,.1-.1.2-.1.4Z" fill="#8c8c8c"/>
          <path d="M975.2,260.4h-.3c-.2-.3-.2-.5.2-.4A.5.5,0,0,0,975.2,260.4Z" fill="#8c8c8c"/>
          <path d="M433.9,261.9h-.3a1,1,0,0,0-.1-.3C433.8,261.5,434,261.5,433.9,261.9Z" fill="#8c8c8c"/>
          <path d="M1268,706.7h-.3l.2-.3h.3Z" fill="#8c8c8c"/>
          <path d="M749,440.2v.3h-.4v-.3Z" fill="#8c8c8c"/>
          <path d="M975,166.7l.2.3-.3.3C974.7,167.1,974.7,166.9,975,166.7Z" fill="#8c8c8c"/>
          <path d="M214.8,610.8v-.3l.3.2v.2Z" fill="#8c8c8c"/>
          <path d="M977.8,73.2l-.2.3h-.3c-.1-.1,0-.2.1-.4Z" fill="#8c8c8c"/>
          <path d="M59.9,758.4h.3c0,.1,0,.3-.1.3s-.2,0-.3-.1Z" fill="#8c8c8c"/>
          <path d="M1111.6,611.4h-.3c-.2-.3-.1-.5.2-.4S1111.6,611.3,1111.6,611.4Z" fill="#8c8c8c"/>
          <path d="M295.5,103.3v.3l-.4-.2a1,1,0,0,0,.1-.3Z" fill="#8c8c8c"/>
          <path d="M257.6,617h.3c-.1.1-.1.3-.2.3s-.2,0-.3,0Z" fill="#8c8c8c"/>
          <path d="M1026.1,72.5l.3.2-.2.3h-.3Z" fill="#8c8c8c"/>
          <path d="M1050.5,616.8c0-.1.1-.2.1-.3l.4.2a1,1,0,0,0-.1.3Z" fill="#8c8c8c"/>
          <path d="M668,105.5a.8.8,0,0,1,.2.4l-.3.2C667.7,105.9,667.7,105.7,668,105.5Z" fill="#8c8c8c"/>
          <path d="M777.4,49h-.3l.2-.4h.3Z" fill="#8c8c8c"/>
          <path d="M192.1,43a1,1,0,0,0,.1.3c-.4.2-.5.1-.4-.2S192,43,192.1,43Z" fill="#8c8c8c"/>
          <path d="M698,693.2h.3c0,.2-.1.3-.1.4h-.3Z" fill="#8c8c8c"/>
          <path d="M754.2,629l.3.2-.2.3H754Z" fill="#8c8c8c"/>
          <path d="M431.1,630l.3.2a.4.4,0,0,1-.1.3H431Z" fill="#8c8c8c"/>
          <path d="M1250.2,761.2v-.3l.3.2c.1,0,0,.2-.1.3Z" fill="#8c8c8c"/>
          <path d="M812.2,629.9h-.4a1,1,0,0,0-.1-.3C812,629.5,812.2,629.5,812.2,629.9Z" fill="#8c8c8c"/>
          <path d="M513.1,419.8l-1.1.6-.2-.3,1.1-.5Z" fill="#8c8c8c"/>
          <path d="M156.3,762.3a.8.8,0,0,1,.2.4l-.2.2Q155.9,762.6,156.3,762.3Z" fill="#8c8c8c"/>
          <path d="M633,420h-.4c.1-.1.1-.3.2-.4h.3Z" fill="#8c8c8c"/>
          <path d="M844.5,411.4l.3.2-.2.3h-.3Z" fill="#8c8c8c"/>
          <path d="M961.7,762v.4l-.4-.2a1,1,0,0,0,.1-.3Z" fill="#8c8c8c"/>
          <path d="M315.1,633.9v-.3h.4a1,1,0,0,0-.1.3Z" fill="#8c8c8c"/>
          <path d="M456,151.4v.3h-.3c-.1-.1,0-.2.1-.3Z" fill="#8c8c8c"/>
          <path d="M645.7,411.2l-.3.2-.3-.2C645.3,410.9,645.6,410.9,645.7,411.2Z" fill="#8c8c8c"/>
          <path d="M302.6,151.5l-.3.2-.3-.2Q302.5,151,302.6,151.5Z" fill="#8c8c8c"/>
          <path d="M1375.5,3.2V2.8l.4.2c.1,0,0,.2-.1.3Z" fill="#8c8c8c"/>
          <path d="M676.8,410.1v.3h-.4c0-.1.1-.2.1-.3Z" fill="#8c8c8c"/>
          <path d="M492.3,284.1h.3a.6.6,0,0,1-.1.4h-.3Z" fill="#8c8c8c"/>
          <path d="M727.7,109.6l-.3-.3h.3l.3.2Z" fill="#8c8c8c"/>
          <path d="M1179.7,767.9h-.3c.1-.1.1-.3.2-.4h.3C1179.8,767.6,1179.8,767.8,1179.7,767.9Z" fill="#8c8c8c"/>
          <path d="M1048.3,634c0,.1.1.2.1.3s-.1.2-.2.3S1047.9,634.2,1048.3,634Z" fill="#8c8c8c"/>
          <path d="M952.6,634.6c0,.1.1.3,0,.3s-.4.1-.4-.2S952.4,634.6,952.6,634.6Z" fill="#8c8c8c"/>
          <path d="M803.5,287.1v.3a.2.2,0,0,1-.2.2C803.1,287.4,803.2,287.2,803.5,287.1Z" fill="#8c8c8c"/>
          <path d="M1.5,288H1.2a.5.5,0,0,1-.1-.3C1.4,287.5,1.6,287.6,1.5,288Z" fill="#8c8c8c"/>
          <path d="M237.4,635.8a.5.5,0,0,1-.4.2c-.1,0-.1-.2-.2-.2S237.2,635.5,237.4,635.8Z" fill="#8c8c8c"/>
          <path d="M711.3,144l-.2.3-.2-.3.3-.3Z" fill="#8c8c8c"/>
          <path d="M31.4,289.1l-.3-.3h.3l.3.2Z" fill="#8c8c8c"/>
          <path d="M714.4,399.2v-.3l.4.2v.3Z" fill="#8c8c8c"/>
          <path d="M1189.7,772.4c.1.1.2.2.2.3l-.3.3C1189.4,772.7,1189.4,772.5,1189.7,772.4Z" fill="#8c8c8c"/>
          <path d="M438.5,688v-.3l.4.2a1,1,0,0,0-.1.3Z" fill="#8c8c8c"/>
          <path d="M1343.4,142.6l.2-.4.3.2c.1,0,0,.2-.1.3Z" fill="#8c8c8c"/>
          <path d="M649,292.1v.3a.2.2,0,0,1-.2.2C648.6,292.4,648.7,292.2,649,292.1Z" fill="#8c8c8c"/>
          <path d="M429.4,637.4h-.3c-.2-.3-.1-.5.2-.4S429.4,637.3,429.4,637.4Z" fill="#8c8c8c"/>
          <path d="M644.4,293.1l-.3-.3h.3l.3.2Z" fill="#8c8c8c"/>
          <path d="M1392.6,776.3a.4.4,0,0,1,.1-.3h.3c.1,0,0,.2-.1.3Z" fill="#8c8c8c"/>
          <path d="M246.4,637.8l-.3.2-.3-.2Q246.1,637.4,246.4,637.8Z" fill="#8c8c8c"/>
          <path d="M312.7,26.2l-.4.2c-.1,0-.2-.2-.3-.3S312.5,25.8,312.7,26.2Z" fill="#8c8c8c"/>
          <path d="M260.9,777.7l-.3.3c0-.1-.1-.2-.1-.3s.1-.2.2-.3Z" fill="#8c8c8c"/>
          <path d="M1395.3,297.2h.3l-.2.3h-.3Z" fill="#8c8c8c"/>
          <path d="M337.9,137.6l.2.3-.2.3Q337.5,137.9,337.9,137.6Z" fill="#8c8c8c"/>
          <path d="M1175.7,301.1v.3c0,.1-.1.2-.2.3S1175.4,301.2,1175.7,301.1Z" fill="#8c8c8c"/>
          <path d="M783.1,639.7v.3c-.1,0-.3,0-.3-.1s0-.2,0-.3Z" fill="#8c8c8c"/>
          <path d="M1037.4,303.6h-.3c-.2-.3-.2-.4.2-.4A1,1,0,0,1,1037.4,303.6Z" fill="#8c8c8c"/>
          <path d="M513.7,385.8h-.3c-.3-.3-.2-.4.2-.4A2.3,2.3,0,0,1,513.7,385.8Z" fill="#8c8c8c"/>
          <path d="M954.6,135.2c0,.1.1.3,0,.3s-.4.2-.4-.2Z" fill="#8c8c8c"/>
          <path d="M53.4,687.2l-.2-.3.3-.2.3.3Z" fill="#8c8c8c"/>
          <path d="M578.6,686.2h.3a.6.6,0,0,1-.1.4h-.3Z" fill="#8c8c8c"/>
          <path d="M1106.5,380.8h-.3a.4.4,0,0,1,.1-.3c.1-.1.2,0,.3.1S1106.5,380.7,1106.5,380.8Z" fill="#8c8c8c"/>
          <path d="M699.8,780.3h-.4c0-.1-.1-.3,0-.3S699.8,779.9,699.8,780.3Z" fill="#8c8c8c"/>
          <path d="M202.3,648.9h-.4l-.2-.2C201.9,648.5,202.1,648.6,202.3,648.9Z" fill="#8c8c8c"/>
          <path d="M567.9,113l-.3.2c0-.1-.2-.2-.1-.3s.1-.2.2-.3Z" fill="#8c8c8c"/>
          <path d="M129.3,655c0,.2.1.3.1.4a.2.2,0,0,1-.2.2C128.9,655.4,129,655.2,129.3,655Z" fill="#8c8c8c"/>
          <path d="M650,655.6h-.3c0-.2.1-.3.1-.4h.3Z" fill="#8c8c8c"/>
          <path d="M996.1,655c0,.2.2.3.1.4a.2.2,0,0,1-.2.2C995.8,655.4,995.8,655.2,996.1,655Z" fill="#8c8c8c"/>
          <path d="M1032.2,311.1l.2.3-.3.3C1031.9,311.5,1031.9,311.3,1032.2,311.1Z" fill="#8c8c8c"/>
          <path d="M898.5,683.8v.3H898v-.3Z" fill="#8c8c8c"/>
          <path d="M1420.5,790.4c0,.1.1.2.1.3l-.2.3C1420.2,790.8,1420.2,790.6,1420.5,790.4Z" fill="#8c8c8c"/>
          <path d="M325.5,312h-.3a1,1,0,0,0-.1-.3C325.4,311.6,325.6,311.7,325.5,312Z" fill="#8c8c8c"/>
          <path d="M1294.8,55.3h-.3l-.3-.2C1294.5,54.9,1294.7,55,1294.8,55.3Z" fill="#8c8c8c"/>
          <path d="M1129.5,312.1l.2.3c0,.1-.2.2-.2.3S1129.2,312.3,1129.5,312.1Z" fill="#8c8c8c"/>
          <path d="M31.1,680.5l-.2.2c-.1-.1-.2-.2-.2-.3s.2-.2.2-.3Z" fill="#8c8c8c"/>
          <path d="M698.8,124.3v.3h-.3a.5.5,0,0,1,.1-.3Z" fill="#8c8c8c"/>
          <path d="M323.1,113.9l-.3.3c0-.1-.1-.2-.1-.3s.1-.2.2-.3Z" fill="#8c8c8c"/>
          <path d="M1381.6,657c0-.2.1-.3.1-.4l.4.2-.2.3Z" fill="#8c8c8c"/>
          <path d="M387.2,368.8h-.3a.4.4,0,0,1,.1-.3h.3Z" fill="#8c8c8c"/>
          <path d="M705,366.1l-.4.2c-.1,0-.2-.2-.3-.3S704.8,365.8,705,366.1Z" fill="#8c8c8c"/>
          <path d="M879.1,4.3l-.2-.2.3-.2.2.2Z" fill="#8c8c8c"/>
          <path d="M396.3,122.1c-.1,0-.3.1-.3,0s-.1-.4.2-.4S396.3,121.9,396.3,122.1Z" fill="#8c8c8c"/>
          <path d="M103.4,792.3V792h.3c.1.1,0,.2-.1.3Z" fill="#8c8c8c"/>
          <path d="M712.9,363a.4.4,0,0,0-.1.3l-.4-.2v-.3Z" fill="#8c8c8c"/>
          <path d="M409.2,359.2c0,.1.2.2.1.3s-.1.2-.2.3S408.8,359.4,409.2,359.2Z" fill="#8c8c8c"/>
          <path d="M970.2,26.2v-.3l.4.2v.3Z" fill="#8c8c8c"/>
          <path d="M.3,319.2l-.3-.3c.1,0,.2-.2.3-.1l.3.2Z" fill="#8c8c8c"/>
          <path d="M1425.7,356.6l-.3.2c0-.1-.1-.2-.1-.3s.1-.1.2-.2Z" fill="#8c8c8c"/>
          <path d="M906.6,671.9l-.3.2-.3-.2Q906.3,671.5,906.6,671.9Z" fill="#8c8c8c"/>
          <path d="M884.8,356.8h-.3a.6.6,0,0,1,.1-.4h.3Z" fill="#8c8c8c"/>
          <path d="M1324.9,660.8l-.2.3h-.3c0-.1.1-.2.1-.3Z" fill="#8c8c8c"/>
          <path d="M1224.1,320v-.3l.3.2c.1,0,0,.2-.1.3Z" fill="#8c8c8c"/>
          <path d="M1319,320.2h.3c0,.1,0,.3-.1.3h-.3C1318.9,320.4,1319,320.3,1319,320.2Z" fill="#8c8c8c"/>
          <path d="M322.8,662.1l.3.2-.2.3h-.2Z" fill="#8c8c8c"/>
          <path d="M605,663.6c-.1,0-.3.1-.3,0s-.2-.5.2-.4A1,1,0,0,1,605,663.6Z" fill="#8c8c8c"/>
          <path d="M1005.6,671.1l-.3-.2.3-.2.3.2Z" fill="#8c8c8c"/>
          <path d="M297.9,326.7h-.3c0-.1,0-.3.1-.3s.2,0,.3.1Z" fill="#8c8c8c"/>
          <path d="M1273.2,670c0-.1.1-.2.1-.3h.3c.1,0,0,.2-.1.3Z" fill="#8c8c8c"/>
          <path d="M606.1,117.5v-.3h.3a.5.5,0,0,1-.1.3Z" fill="#8c8c8c"/>
          <path d="M529.8,331.5l-.3.3a.8.8,0,0,1-.2-.4l.3-.2Z" fill="#8c8c8c"/>
          <path d="M821.5,53.4c.1.1.2.2.2.3l-.3.3C821.2,53.8,821.2,53.6,821.5,53.4Z" fill="#8c8c8c"/>
          <path d="M323.6,331.9v.3h-.3c-.1-.1,0-.2.1-.3Z" fill="#8c8c8c"/>
          <path d="M1029.2,46.4c0,.1.2.2.1.3l-.2.3C1028.9,46.7,1028.9,46.6,1029.2,46.4Z" fill="#8c8c8c"/>
          <path d="M155.5,348.7h-.3c-.2-.4-.2-.5.2-.5S155.5,348.6,155.5,348.7Z" fill="#8c8c8c"/>
          <path d="M1425.7,797.8l-.3.3c0-.1-.2-.2-.2-.4l.3-.3C1425.6,797.6,1425.6,797.7,1425.7,797.8Z" fill="#8c8c8c"/>
          <path d="M594,344.6c-.2.1-.3.2-.4.1s-.1-.5.2-.4S593.9,344.5,594,344.6Z" fill="#8c8c8c"/>
          <path d="M1224.6,116.4l-.3.2-.3-.2Q1224.4,116,1224.6,116.4Z" fill="#8c8c8c"/>
          <path d="M703.1,116.6c.1.1.2.2.2.3s-.2.2-.2.3S702.8,116.7,703.1,116.6Z" fill="#8c8c8c"/>
          <path d="M492.6,452c-.1,0-.3.1-.3,0s-.1-.4.2-.4S492.6,451.8,492.6,452Z" fill="#8c8c8c"/>
          <path d="M382.6,336.6l-.3.3c-.2-.1-.2-.3.2-.5Z" fill="#8c8c8c"/>
          <path d="M1026.6,394.7c-.1-.1-.4-.2-.3-.3s.2-.2.4.2Z" fill="#8c8c8c"/>
          <path d="M1026.7,394.6l.3.3c0,.2-.2.2-.4-.2Z" fill="#8c8c8c"/>
          <path d="M512.9,419.6c.1-.1.2-.3.3-.3s.2.3-.1.5Z" fill="#8c8c8c"/>
          <path d="M925.2,460.9l-.3-.3c.1-.3.3-.3.5.1Z" fill="#8c8c8c"/>
          <path d="M87.7,485l-.3.3-.2-.2.3-.3Z" fill="#8c8c8c"/>
          <path d="M714.6,499c-.1-.1-.3-.2-.3-.3s.2-.2.4.2Z" fill="#8c8c8c"/>
          <path d="M714.7,498.9c.1.1.4.2.3.3s-.2.2-.4-.2Z" fill="#8c8c8c"/>
          <path d="M762.8,228.1l.4.3c-.1.3-.3.2-.5-.2Z" fill="#8c8c8c"/>
          <path d="M762.7,228.2l-.3-.2c.1-.3.2-.2.4.1Z" fill="#8c8c8c"/>
          <path d="M201.9,529c.1-.1.2-.3.3-.3s.2.2-.2.3Z" fill="#8c8c8c"/>
          <path d="M202,529l-.2.4c-.3-.1-.2-.2.1-.4Z" fill="#8c8c8c"/>
          <path d="M181,201.1l.3.2c-.1.3-.2.3-.5-.1Z" fill="#8c8c8c"/>
          <path d="M1407.9,180.1c0,.1-.1.3-.2.3s-.2-.2.2-.4Z" fill="#8c8c8c"/>
          <path d="M1407.9,180c0-.1.1-.3.2-.3s.2.2-.2.4Z" fill="#8c8c8c"/>
          <path d="M720.6,624.3c-.1-.1-.4-.2-.3-.3s.2-.2.4.2Z" fill="#8c8c8c"/>
          <path d="M647.4,152l.4.2c-.1.3-.2.2-.4-.2Z" fill="#8c8c8c"/>
          <path d="M725.6,115.9l-.3-.2c0-.3.2-.3.4.1Z" fill="#8c8c8c"/>
          <path d="M330.4,109.8l.4.3c-.1.3-.3.2-.5-.2Z" fill="#8c8c8c"/>
          <path d="M330.3,109.9l-.3-.2c0-.4.2-.3.4.1Z" fill="#8c8c8c"/>
          <path d="M22.3,699.5l-.3-.2c.1-.3.2-.3.4.1Z" fill="#8c8c8c"/>
          <path d="M22.4,699.4c.1.1.3.2.3.3s-.2.2-.4-.2Z" fill="#8c8c8c"/>
          <path d="M1092.8,703.4l.3-.3c.3.1.2.2-.2.4Z" fill="#8c8c8c"/>
          <path d="M1092.9,703.5l-.2.4c-.3-.1-.3-.3.1-.5Z" fill="#8c8c8c"/>
          <path d="M332.4,706.5l.2-.4-.2.4Z" fill="#8c8c8c"/>
          <path d="M332.4,706.5l-.2.3.2-.3Z" fill="#8c8c8c"/>
          <path d="M1380.7,79.8c-.1,0-.3-.1-.3-.2s.2-.3.5.1Z" fill="#8c8c8c"/>
        </g>
      </g>
    </g>
  </g>
</svg>
