<?xml version="1.0" encoding="utf-8"?>
<!-- Generator: Adobe Illustrator 26.0.1, SVG Export Plug-In . SVG Version: 6.00 Build 0)  -->
<svg version="1.1" id="Layer_1" xmlns="http://www.w3.org/2000/svg" xmlns:xlink="http://www.w3.org/1999/xlink" x="0px" y="0px"
	 viewBox="0 0 1080 1080" style="enable-background:new 0 0 1080 1080;" xml:space="preserve">
<style type="text/css">
	.st0{fill:#FFFFFF;}
</style>
<g transform="translate(0,-952.36218)">
	<path class="st0" d="M457.9,1508.1c-15,15-15,39.3,0,54.2c15,15,39.3,15,54.2,0l28.6-28.6c15-15,15-39.3,0-54.2
		c-2.4-2.4-6.2-2.4-8.6,0c-2.4,2.4-2.4,6.2,0,8.6c10.4,10.4,10.4,26.8,0,37.1l-28.6,28.6c-10.4,10.4-26.8,10.4-37.1,0
		c-10.4-10.4-10.4-26.8,0-37.1l28.6-28.6c2.4-2.3,2.5-6.2,0.1-8.6c-2.3-2.4-6.2-2.5-8.6-0.1c0,0-0.1,0.1-0.1,0.1
		C486.4,1479.5,457.9,1508.1,457.9,1508.1z M515,1451c-15,15-15,39.3,0,54.2c3.3,3.3,7,5.1,10.3,1.7c3.3-3.3,3.3-8.7,0-12
		c0,0,0,0-1.7,1.7c-10.4-10.4-10.4-26.8,0-37.1l28.6-28.6c10.4-10.4,26.8-10.4,37.1,0c10.4,10.4,10.4,26.8,0,37.1l-28.6,28.6
		c-2.4,2.3-2.5,6.2-0.1,8.6c2.3,2.4,6.2,2.5,8.6,0.1c0,0,0.1-0.1,0.1-0.1l28.6-28.6c15-15,15-39.3,0-54.2c-15-15-39.3-15-54.2,0
		C543.5,1422.4,515,1451,515,1451z"/>
</g>
</svg>
